<?xml version="1.0" encoding="UTF-8"?>
<svg version="1.1" xmlns="http://www.w3.org/2000/svg" width="1024" height="1024">
<path d="M0 0 C29.81911067 6.90930613 54.00563129 28.11641513 70.25 53.375 C80.65228685 70.94614302 85.99060665 89.93420323 89 110 C89.10441406 110.69448242 89.20882813 111.38896484 89.31640625 112.10449219 C89.9055013 116.06596998 90.46532619 120.03083328 91 124 C104.63289793 111.43217222 109.58922229 90.54230156 112.8125 72.9375 C112.99872925 71.92042969 112.99872925 71.92042969 113.1887207 70.8828125 C113.75193599 67.51100258 114.05268221 64.25726212 114.01171875 60.84765625 C114.00156196 57.51284397 114.28098557 54.73556496 115 51.5 C115.185625 50.6440625 115.37125 49.788125 115.5625 48.90625 C115.706875 48.2771875 115.85125 47.648125 116 47 C115.34 46.67 114.68 46.34 114 46 C114.66 46 115.32 46 116 46 C116 45.01 116 44.02 116 43 C116.66 43 117.32 43 118 43 C120.0392737 46.6459742 122.02590382 50.31835227 124 54 C124.33161133 54.61037109 124.66322266 55.22074219 125.00488281 55.84960938 C138.23906406 80.36846075 140.62932718 107.13244029 133 134 C124.4530949 162.23102487 107.61288427 187.06682013 85 206 C83.59427734 207.19496094 83.59427734 207.19496094 82.16015625 208.4140625 C49.43520177 234.94780938 8.10517258 244.15047767 -32.125 252.74609375 C-60.89857831 258.92155566 -91.82442071 266.29748432 -114 287 C-114 287.66 -114 288.32 -114 289 C-114.94875 289.433125 -115.8975 289.86625 -116.875 290.3125 C-120.20041937 291.79302201 -120.20041937 291.79302201 -122 295 C-121.39341553 294.68361572 -120.78683105 294.36723145 -120.16186523 294.04125977 C-75.38349343 270.82268922 -29.13928295 258.98209611 21.25 257.4375 C22.59245692 257.39415828 23.93490495 257.35053997 25.27734375 257.30664062 C28.5181527 257.20172235 31.75902277 257.09955985 35 257 C39.74100691 271.22302074 27.54276286 297.20187603 21.06396484 310.2121582 C10.3175067 330.73836482 -6.33392118 344.84901427 -28.1875 352.1875 C-41.08515498 355.96390901 -54.65198612 356.37224687 -68 357 C-68 357.66 -68 358.32 -68 359 C-67.45472656 359.15855469 -66.90945313 359.31710937 -66.34765625 359.48046875 C-35.32510783 369.07889826 -16.82917379 403.84432478 -2.55761719 430.71582031 C16.0013927 466.60913385 29.11997453 511.32724092 28 552 C24.37935619 548.59233524 21.46878535 545.04470625 18.625 540.96484375 C16.66670171 538.5969975 14.44211924 536.85221544 12 535 C11.91024902 535.59200195 11.82049805 536.18400391 11.72802734 536.79394531 C9.64424475 550.26197977 6.76463891 563.05057453 2.56884766 576.01220703 C1.89320457 578.20476426 1.89320457 578.20476426 1.51171875 581.37109375 C0.92617191 584.37928478 0.18603858 584.98295692 -2 587 C-3.14070896 589.45805299 -3.14070896 589.45805299 -4.0625 592.125 C-5.78249337 596.89124668 -5.78249337 596.89124668 -8 598 C-8.68023511 599.66117501 -9.34428838 601.32899297 -10 603 C-19.46339361 618.91462935 -32.06022367 634.94163615 -47 646 C-47.66 646 -48.32 646 -49 646 C-48.33322716 642.7040206 -47.09322133 640.13938507 -45.5 637.1875 C-28.68039611 603.78972195 -20.12227048 566.32126634 -20 529 C-19.99597168 528.26056152 -19.99194336 527.52112305 -19.98779297 526.75927734 C-20.06130064 508.2396685 -23.66384101 486.67231798 -32 470 C-31.93071289 470.73686035 -31.86142578 471.4737207 -31.79003906 472.23291016 C-27.50294547 521.93115699 -35.938381 571.07097431 -58 616 C-58.45391113 616.92699707 -58.90782227 617.85399414 -59.37548828 618.80908203 C-66.00432518 632.21276545 -73.35213457 644.80396625 -82 657 C-82.7425 658.05703125 -83.485 659.1140625 -84.25 660.203125 C-88.61708661 666.31022269 -93.21958229 672.21186357 -98 678 C-98.42764648 678.51933105 -98.85529297 679.03866211 -99.29589844 679.57373047 C-114.95088118 698.49339027 -132.27582945 713.78285077 -153 727 C-153.66 726.67 -154.32 726.34 -155 726 C-155.7848967 723.10032501 -156.45751255 720.25002464 -157.0625 717.3125 C-157.23587891 716.50876953 -157.40925781 715.70503906 -157.58789062 714.87695312 C-158.32714627 711.41293145 -159.00143245 707.98983747 -159.49609375 704.48046875 C-159.66238281 703.66191406 -159.82867187 702.84335937 -160 702 C-160.66 701.67 -161.32 701.34 -162 701 C-162.5703125 699.27734375 -162.5703125 699.27734375 -163.125 696.9375 C-169.88127711 673.22296735 -188.03154193 645.97457439 -207.09375 630.42578125 C-209.59418561 628.33872411 -211.61695644 626.30777044 -213.6875 623.8125 C-215.76108797 621.31942756 -217.25541566 619.82972289 -220 618 C-220 617.34 -220 616.68 -220 616 C-220.54398438 615.76667969 -221.08796875 615.53335938 -221.6484375 615.29296875 C-224.65438225 613.64019846 -227.02630593 611.55121666 -229.625 609.3125 C-234.87518138 604.86176175 -240.27708016 600.83158451 -246 597 C-247.14345845 596.22169091 -248.28667125 595.44302085 -249.4296875 594.6640625 C-255.95899661 590.23837431 -262.56428932 585.96011116 -269.3125 581.875 C-269.95276123 581.4845752 -270.59302246 581.09415039 -271.25268555 580.69189453 C-274.40543658 578.65797715 -274.40543658 578.65797715 -278 578 C-278 577.34 -278 576.68 -278 576 C-278.804375 575.7525 -279.60875 575.505 -280.4375 575.25 C-292.4893617 571.0212766 -292.4893617 571.0212766 -294 568 C-295.98043985 567.32806505 -297.96492283 566.66711937 -299.9609375 566.04296875 C-303.75922082 564.73944478 -307.42685526 563.1863558 -311.125 561.625 C-318.97026878 558.33479654 -326.89651898 555.5849814 -335 553 C-337.00091074 552.33607181 -339.00121653 551.67030523 -341 551 C-341 550.34 -341 549.68 -341 549 C-339.94167969 548.81566406 -338.88335937 548.63132812 -337.79296875 548.44140625 C-327.39019493 546.5006424 -317.41898853 543.71056083 -307.375 540.375 C-305.56938599 539.78054077 -305.56938599 539.78054077 -303.72729492 539.17407227 C-297.95141397 537.75522418 -297.95141397 537.75522418 -294 534 C-293.17886719 533.8865625 -292.35773438 533.773125 -291.51171875 533.65625 C-286.78482634 532.77291527 -283.03108518 530.75130644 -278.8125 528.5 C-277.96969482 528.05221191 -277.12688965 527.60442383 -276.25854492 527.14306641 C-269.4529236 523.43114721 -263.67337263 519.31454394 -258 514 C-257.27683594 513.35546875 -256.55367188 512.7109375 -255.80859375 512.046875 C-245.14064281 502.08742175 -239.27297551 488.71850033 -235 475 C-222.69576948 480.7920678 -212.08980425 489.02021653 -202 498 C-200.71065607 499.06531744 -199.41945579 500.1283998 -198.125 501.1875 C-194.34603535 504.45829092 -191.16409731 508.14056679 -188 512 C-186.8553125 513.37091797 -186.8553125 513.37091797 -185.6875 514.76953125 C-180.67317371 520.99826469 -176.40704352 527.3936906 -172.5 534.375 C-172.07871826 535.12378418 -171.65743652 535.87256836 -171.22338867 536.64404297 C-168.83777474 541.03028951 -167.17828581 545.14597476 -166 550 C-165.01 550 -164.02 550 -163 550 C-163.83573389 532.24065475 -170.20515277 515.41170815 -181.5625 501.75 C-181.99699463 501.22519043 -182.43148926 500.70038086 -182.87915039 500.15966797 C-186.19609878 496.39901988 -189.61205823 494.27804146 -194 492 C-194 491.34 -194 490.68 -194 490 C-211.87625908 474.48718863 -236.35932888 466.19696044 -259 461 C-259.80695313 460.79890625 -260.61390625 460.5978125 -261.4453125 460.390625 C-265.43647496 459.78035551 -269.40530607 459.73406113 -273.4375 459.6875 C-274.68756836 459.64399414 -274.68756836 459.64399414 -275.96289062 459.59960938 C-281.45424181 459.54317652 -284.82197551 460.09271642 -289 464 C-290.57666738 466.57673024 -291.84859652 469.2095398 -293 472 C-297.46131179 471.43815835 -301.91821578 470.84661247 -306.375 470.25 C-307.62667969 470.09273437 -308.87835938 469.93546875 -310.16796875 469.7734375 C-318.86402599 468.58968102 -326.62494 466.91670667 -334 462 C-334 461.34 -334 460.68 -334 460 C-334.99 459.67 -335.98 459.34 -337 459 C-338.60546875 457.0390625 -338.60546875 457.0390625 -340.1875 454.625 C-340.71730469 453.83351563 -341.24710937 453.04203125 -341.79296875 452.2265625 C-343 450 -343 450 -343 447 C-341.80890625 446.6596875 -340.6178125 446.319375 -339.390625 445.96875 C-338.1845459 445.62396606 -338.1845459 445.62396606 -336.95410156 445.2722168 C-335.12299017 444.74930191 -333.29160129 444.22735788 -331.45996094 443.70629883 C-325.86229445 442.11204426 -320.27180201 440.49596757 -314.6875 438.85546875 C-313.45354492 438.49582031 -312.21958984 438.13617187 -310.94824219 437.765625 C-308.52529264 437.05927794 -306.1039919 436.34724451 -303.68457031 435.62890625 C-298.69254364 434.18020614 -293.92129017 432.86634812 -288.734375 432.39453125 C-287.50203125 432.26433594 -286.2696875 432.13414062 -285 432 C-284.67 431.34 -284.34 430.68 -284 430 C-282.68 430.33 -281.36 430.66 -280 431 C-280 430.34 -280 429.68 -280 429 C-304.75930007 430.35622085 -327.212603 433.93531744 -350 444 C-362.62863826 435.53817132 -369.30124709 422.58728311 -373 408.0625 C-374.00285663 402.95419905 -374.43663811 399.02823338 -373 394 C-369.61430961 390.07638904 -366.26514392 387.84634389 -361.6171875 385.6171875 C-361.00951538 385.32108078 -360.40184326 385.02497406 -359.77575684 384.71989441 C-358.48112327 384.08938958 -357.18445382 383.46305033 -355.88592529 382.84060669 C-352.48422516 381.20717734 -349.10115815 379.53621438 -345.71875 377.86328125 C-344.71550186 377.36757881 -344.71550186 377.36757881 -343.69198608 376.86186218 C-325.74210689 367.9422253 -306.28769757 357.28769757 -292 343 C-294.02633069 338.67628107 -294.02633069 338.67628107 -297 335 C-294.56346778 333.41516214 -292.12584068 331.83205202 -289.6875 330.25 C-288.93799072 329.76281494 -288.18848145 329.27562988 -287.41625977 328.77368164 C-283.18260865 326.03020592 -278.92968731 323.32410374 -274.640625 320.66796875 C-273.33798706 319.85827637 -273.33798706 319.85827637 -272.0090332 319.03222656 C-270.30813553 317.97742132 -268.60358303 316.9284847 -266.89526367 315.88574219 C-266.1241626 315.4065332 -265.35306152 314.92732422 -264.55859375 314.43359375 C-263.52690063 313.80022095 -263.52690063 313.80022095 -262.47436523 313.15405273 C-261.98782471 312.77321533 -261.50128418 312.39237793 -261 312 C-261 311.34 -261 310.68 -261 310 C-260.3503125 309.94328125 -259.700625 309.8865625 -259.03125 309.828125 C-254.64651651 308.63023389 -251.27805024 306.22828905 -247.5 303.75 C-245.78842003 302.64741289 -244.0761561 301.54588693 -242.36328125 300.4453125 C-241.47850098 299.87458008 -240.5937207 299.30384766 -239.68212891 298.71582031 C-235.38327966 295.96574635 -231.03438999 293.29821455 -226.6875 290.625 C-164.18216779 252.35561393 -164.18216779 252.35561393 -131.27636719 189.0703125 C-128.25621913 176.09062342 -126.38960924 163.43631854 -126.09570312 150.12109375 C-125.92740287 146.39101063 -125.45220656 142.70517634 -125 139 C-123.65407903 140.65651812 -122.32481269 142.32655239 -121 144 C-120.56429687 144.51175781 -120.12859375 145.02351562 -119.6796875 145.55078125 C-105.03116895 163.60127816 -99.04333535 188.11689665 -101 211 C-102.27699736 220.16701677 -104.42908039 229.11882481 -107 238 C-105.71403931 237.47865479 -105.71403931 237.47865479 -104.40209961 236.94677734 C-97.1515766 234.02506093 -89.87943689 231.17574005 -82.56640625 228.4140625 C-80.91078103 227.78652763 -79.25518238 227.15892263 -77.59960938 226.53125 C-75.08315232 225.57753208 -72.56590294 224.62627416 -70.0456543 223.68261719 C-55.36559067 218.17920064 -40.7257755 212.33792923 -28 203 C-27.13375 202.4225 -26.2675 201.845 -25.375 201.25 C-14.84608577 191.27523915 -10.93189883 178.13618842 -10 164 C-9.49767695 140.01266317 -16.7847932 115.66615167 -27.04907227 94.19726562 C-28 92 -28 92 -28 90 C-28.66 89.67 -29.32 89.34 -30 89 C-30.40729228 86.67843403 -30.74438677 84.3431213 -31 82 C-4.40920799 95.6499399 15.25404338 113.6581913 24.8125 142.625 C27.86901359 152.46499372 28.86695334 162.79552497 30 173 C45.25456124 157.00492608 47.47123761 138.90541295 47.296875 117.5 C47.0627276 108.1723321 45.53626238 99.22498459 43.48071289 90.14282227 C43.13722442 88.61169055 42.82542109 87.07331134 42.53491211 85.53125 C41.58675343 81.04448176 39.99793375 76.7658962 38.5 72.4375 C38.15122803 71.42913086 37.80245605 70.42076172 37.44311523 69.38183594 C34.1037527 59.93792066 30.10711325 50.8552513 25.81274414 41.81152344 C25 40 25 40 24 37 C23.01 37 22.02 37 21 37 C20.938125 35.824375 20.938125 35.824375 20.875 34.625 C19.65013656 29.55056575 17.25261895 25.09409251 14 21 C13.01 21 12.02 21 11 21 C11 19.68 11 18.36 11 17 C9.60684514 14.72967356 8.20198116 12.6332782 6.625 10.5 C1.58623106 3.55594656 1.58623106 3.55594656 0 0 Z M-23.02734375 285.86328125 C-24.3354063 286.33354219 -25.63848823 286.81778654 -26.9375 287.3125 C-27.64116699 287.58030273 -28.34483398 287.84810547 -29.06982422 288.12402344 C-43.55128466 293.83546833 -56.66724853 301.56070176 -69 311 C-69.94359375 311.69738281 -70.8871875 312.39476562 -71.859375 313.11328125 C-75.01951621 315.44923885 -75.01951621 315.44923885 -78 318 C-78 318.66 -78 319.32 -78 320 C-78.57621094 320.25136719 -79.15242188 320.50273437 -79.74609375 320.76171875 C-85.31588657 323.82172624 -90.17517619 329.35035238 -93 335 C-85.09632678 334.38761702 -77.40206248 333.07299401 -69.625 331.5625 C-67.88283203 331.23668945 -67.88283203 331.23668945 -66.10546875 330.90429688 C-64.99042969 330.68966797 -63.87539063 330.47503906 -62.7265625 330.25390625 C-61.21956787 329.96495483 -61.21956787 329.96495483 -59.68212891 329.67016602 C-57.1979981 329.04947249 -55.22397362 328.24821594 -53 327 C-56.56639824 324.69233055 -59.96208801 323.28631545 -64 322 C-62.94941406 321.74605469 -61.89882813 321.49210937 -60.81640625 321.23046875 C-53.43140971 319.4264196 -46.16759364 317.55985487 -39 315 C-39 314.01 -39 313.02 -39 312 C-42.63 311.34 -46.26 310.68 -50 310 C-49.35039307 309.55720703 -48.70078613 309.11441406 -48.03149414 308.65820312 C-45.03737278 306.61190523 -42.04994426 304.55603241 -39.0625 302.5 C-38.04091797 301.80390625 -37.01933594 301.1078125 -35.96679688 300.390625 C-29.57361828 295.978719 -23.66240976 291.31964021 -18 286 C-20.11088881 284.66316076 -20.11088881 284.66316076 -23.02734375 285.86328125 Z M-193 325 C-194.7896323 325.13467133 -196.58212112 325.2318435 -198.375 325.3125 C-211.28072877 326.32291293 -221.41362233 331.94191002 -230.25390625 341.2109375 C-233.3159226 344.34830548 -236.67095492 347.15210597 -240 350 C-240.680625 350.58523438 -241.36125 351.17046875 -242.0625 351.7734375 C-243.70601037 353.18500084 -245.35266531 354.59290162 -247 356 C-246.34 356.33 -245.68 356.66 -245 357 C-243.29693477 356.24239774 -241.61316935 355.44140956 -239.9375 354.625 C-232.05661178 351.40903216 -224.37365308 351.38979422 -215.93530273 351.36572266 C-208.38612869 351.2941665 -202.9546504 350.35395857 -196.375 346.4375 C-193.41780841 343.40248758 -191.57492697 340.0537032 -189.45703125 336.40234375 C-185.59085387 330.02781536 -180.70983516 327.61668953 -174 325 C-177.73063784 323.81596885 -181.29474166 323.86693211 -185.1875 323.875 C-187.06501953 323.87113281 -187.06501953 323.87113281 -188.98046875 323.8671875 C-191.87927536 323.654158 -191.87927536 323.654158 -193 325 Z M-116 369 C-115 371 -115 371 -115 371 Z M-115 371 C-115.76610325 374.18329109 -116.13023155 377.29795324 -116.359375 380.5546875 C-117.61339808 398.17744892 -120.87590275 414.55454965 -134.1875 427.3125 C-152.90224908 442.82353779 -178.91775132 444.12908197 -202.0625 446.1875 C-204.0085232 446.36588681 -205.95448729 446.54491974 -207.90039062 446.72460938 C-212.5996149 447.15716209 -217.29954296 447.58106501 -222 448 C-219.63101903 450.51369929 -218.42550337 451.39237306 -214.95703125 451.7734375 C-213.73632935 451.92280762 -213.73632935 451.92280762 -212.4909668 452.07519531 C-211.60707275 452.17413086 -210.72317871 452.27306641 -209.8125 452.375 C-189.34666876 455.01071063 -169.69618574 459.91223198 -150 466 C-150.20496094 465.38511719 -150.40992188 464.77023437 -150.62109375 464.13671875 C-152.31054688 459.06835938 -152.31054688 459.06835938 -154 454 C-141.86142195 458.2221141 -130.35425933 462.97049677 -119 469 C-116.5126452 459.90142674 -116.5126452 459.90142674 -118 451 C-117.34 451 -116.68 451 -116 451 C-115.67 444.73 -115.34 438.46 -115 432 C-111.1875 438.25 -111.1875 438.25 -110.00463867 440.19628906 C-108.13503469 443.24727012 -106.20923661 446.18444293 -104 449 C-99.95774388 423.80808238 -99.36627167 393.22158746 -114 371 C-114.33 371 -114.66 371 -115 371 Z M-335.9375 389.8125 C-337.1740332 390.34713867 -337.1740332 390.34713867 -338.43554688 390.89257812 C-339.22896484 391.24384766 -340.02238281 391.59511719 -340.83984375 391.95703125 C-341.92833618 392.43619995 -341.92833618 392.43619995 -343.03881836 392.92504883 C-345.35650203 394.07630048 -345.35650203 394.07630048 -348 397 C-345.69 399.64 -343.38 402.28 -341 405 C-336.26983874 404.5280388 -336.26983874 404.5280388 -334.53027344 402.55712891 C-333.95067871 401.65099854 -333.95067871 401.65099854 -333.359375 400.7265625 C-332.92882812 400.0665625 -332.49828125 399.4065625 -332.0546875 398.7265625 C-331.62414062 398.03304688 -331.19359375 397.33953125 -330.75 396.625 C-330.30398438 395.93921875 -329.85796875 395.2534375 -329.3984375 394.546875 C-327.56123456 391.68529223 -326.08172609 389.24517828 -325 386 C-328.86124215 386 -332.45565119 388.26531271 -335.9375 389.8125 Z M-279 429 C-275 430 -275 430 -275 430 Z M-229 449 C-229 449.33 -229 449.66 -229 450 C-226.69 450 -224.38 450 -222 450 C-222 449.67 -222 449.34 -222 449 C-224.31 449 -226.62 449 -229 449 Z M-34 465 C-33 467 -33 467 -33 467 Z " fill="#145DB8" transform="translate(646,130)"/>
<path d="M0 0 C-1.34440477 2.79804731 -2.83768589 5.38913897 -4.5390625 7.984375 C-15.30887052 24.59302398 -28.00502483 44.25941168 -30.61328125 64.3125 C-30.74089844 64.869375 -30.86851562 65.42625 -31 66 C-31.99 66.495 -31.99 66.495 -33 67 C-33.49422222 69.85550618 -33.85387912 72.6208748 -34.125 75.5 C-34.2502002 76.78028076 -34.2502002 76.78028076 -34.37792969 78.08642578 C-36.14649795 97.60203514 -36.43640605 119.93014143 -24.171875 136.29296875 C-23 138 -23 138 -23 140 C-21.35 140.66 -19.7 141.32 -18 142 C-17.90203125 140.83984375 -17.8040625 139.6796875 -17.703125 138.484375 C-15.71732801 116.96618642 -8.20572103 99.19198829 8.56640625 84.890625 C20.02114268 75.99160023 20.02114268 75.99160023 27 75 C25.65681171 79.100259 24.30652446 83.18160946 22.79296875 87.22265625 C13.74292444 111.47458767 11.94338799 136.82984726 22 161 C23.5224494 164.10281808 25.14359156 167.08504377 27 170 C26.13761719 170.49886719 25.27523437 170.99773437 24.38671875 171.51171875 C15.05022883 176.98017865 6.10581292 182.91879149 -2.78515625 189.08203125 C-3.87401123 189.82767334 -3.87401123 189.82767334 -4.98486328 190.58837891 C-6.25104044 191.47534721 -7.49814505 192.39088283 -8.71435547 193.34521484 C-10.24609375 194.51171875 -10.24609375 194.51171875 -13 196 C-16.85229388 195.17534993 -19.85244819 192.89440717 -23.125 190.75 C-29.93702751 186.42268744 -37.07945639 182.75454825 -44.25 179.0625 C-45.1362355 178.60596039 -45.1362355 178.60596039 -46.04037476 178.14019775 C-50.02444746 176.08864334 -54.01191831 174.04374702 -58 172 C-86.63148018 157.32396879 -111.85225101 138.07519588 -122.4375 106.4375 C-128.29050918 84.82432391 -127.08251747 63.15531558 -116.19824219 43.3347168 C-109.09829553 30.97140786 -98.98204971 21.90436463 -88 13 C-87.34 13.33 -86.68 13.66 -86 14 C-86.43119141 15.04027344 -86.43119141 15.04027344 -86.87109375 16.1015625 C-88.06343772 19.1628747 -89.08302147 22.23917901 -90.0625 25.375 C-90.40410156 26.45523437 -90.74570312 27.53546875 -91.09765625 28.6484375 C-96.95518277 50.40496458 -93.24774895 73.72232048 -82.26318359 93.09765625 C-79.87258046 96.69788423 -76.9393308 99.84342108 -74 103 C-73.93530518 102.42258057 -73.87061035 101.84516113 -73.80395508 101.25024414 C-69.86448746 67.10706426 -57.61589276 38.78573938 -30.3125 16.83984375 C-8.5911235 0 -8.5911235 0 0 0 Z " fill="#155DB8" transform="translate(406,230)"/>
<path d="M0 0 C29.81911067 6.90930613 54.00563129 28.11641513 70.25 53.375 C73.16577453 58.27880262 75.66986061 63.2993474 78 68.5 C78.30325195 69.1707959 78.60650391 69.8415918 78.91894531 70.53271484 C80.47184015 74.15035764 81.36424008 77.05406576 81 81 C78.58153204 78.85394189 77.58179707 77.29485619 76.75 74.1875 C73.42263135 63.54685233 67.77238272 53.79843028 61 45 C60.32195313 44.10667969 59.64390625 43.21335938 58.9453125 42.29296875 C51.00159045 32.18663197 41.77611903 23.97371099 31 17 C29.94425781 16.30648437 28.88851562 15.61296875 27.80078125 14.8984375 C21.65596249 10.9731758 16.04626431 7.91085134 9 6 C9 9.44587171 9.55807366 10.13771021 11.5 12.875 C17.37252067 21.43564634 22.7153976 30.16435563 27.375 39.4375 C27.70870605 40.09951416 28.04241211 40.76152832 28.38623047 41.44360352 C30.24688797 45.2199251 31.76825752 48.97506372 33 53 C28.49583156 49.32993682 26.23209799 44.25091904 24 39 C24 38.34 24 37.68 24 37 C23.01 37 22.02 37 21 37 C20.95875 36.21625 20.9175 35.4325 20.875 34.625 C19.65013656 29.55056575 17.25261895 25.09409251 14 21 C13.01 21 12.02 21 11 21 C11 19.68 11 18.36 11 17 C9.60684514 14.72967356 8.20198116 12.6332782 6.625 10.5 C1.58623106 3.55594656 1.58623106 3.55594656 0 0 Z " fill="#164F9C" transform="translate(646,130)"/>
<path d="M0 0 C0.495 1.485 0.495 1.485 1 3 C-0.29508173 5.06965215 -1.59551942 6.86362175 -3.125 8.75 C-3.80127441 9.60283569 -3.80127441 9.60283569 -4.49121094 10.47290039 C-5.97763219 12.32941329 -7.48439212 14.1672495 -9 16 C-9.5043457 16.61020996 -10.00869141 17.22041992 -10.52832031 17.84912109 C-26.47447893 36.98148176 -43.97722163 52.59240917 -65 66 C-65.66 65.67 -66.32 65.34 -67 65 C-67.7848967 62.10032501 -68.45751255 59.25002464 -69.0625 56.3125 C-69.23587891 55.50876953 -69.40925781 54.70503906 -69.58789062 53.87695312 C-70.32714627 50.41293145 -71.00143245 46.98983747 -71.49609375 43.48046875 C-71.66238281 42.66191406 -71.82867187 41.84335937 -72 41 C-72.66 40.67 -73.32 40.34 -74 40 C-74.5703125 38.27734375 -74.5703125 38.27734375 -75.125 35.9375 C-76.74578226 30.0959306 -79.3935441 24.95455099 -82.21923828 19.62280273 C-84.06985539 16.08383466 -85.48670007 13.02084943 -86 9 C-82.0850627 12.3842458 -80.23125305 16.07173562 -78.125 20.6875 C-77.78057861 21.43136963 -77.43615723 22.17523926 -77.08129883 22.94165039 C-73.52618853 30.78068095 -70.66660638 38.82283963 -68 47 C-67.48759766 48.54107422 -67.48759766 48.54107422 -66.96484375 50.11328125 C-65.64232976 54.26536005 -64.86185474 57.61005069 -65 62 C-43.27121535 49.35104914 -24.2279538 32.04138748 -9 12 C-8.59104492 11.46262207 -8.18208984 10.92524414 -7.76074219 10.37158203 C-5.14891913 6.93264896 -2.56475627 3.47424431 0 0 Z " fill="#164E9A" transform="translate(558,791)"/>
<path d="M0 0 C-3.62919087 2.96508636 -7.6153991 5.03019527 -11.75 7.1875 C-12.86205811 7.77362061 -12.86205811 7.77362061 -13.99658203 8.37158203 C-17.83165959 10.38282749 -21.68432984 12.35062101 -25.5703125 14.26171875 C-26.29379883 14.61790283 -27.01728516 14.97408691 -27.76269531 15.34106445 C-29.14193379 16.01617714 -30.52399775 16.68555617 -31.90917969 17.34838867 C-36.52660812 19.47162417 -36.52660812 19.47162417 -40 23 C-42.33451656 36.43924397 -35.57386424 49.69581172 -29 61 C-26.73177473 64.07751924 -24.53552949 66.3719598 -20.91796875 67.8515625 C-16.35044386 68.08391316 -12.62566239 66.2562656 -8.4375 64.5625 C-6.75103344 63.89123772 -5.06229694 63.22564389 -3.37109375 62.56640625 C-2.62786865 62.26677979 -1.88464355 61.96715332 -1.11889648 61.65844727 C1 61 1 61 5 61 C5 61.66 5 62.32 5 63 C3.78183594 63.39832031 2.56367188 63.79664063 1.30859375 64.20703125 C-0.31515786 64.74202456 -1.93885278 65.27718996 -3.5625 65.8125 C-4.36236328 66.07353516 -5.16222656 66.33457031 -5.98632812 66.60351562 C-10.7746946 68.18660821 -15.39533285 69.94180649 -20 72 C-32.62863826 63.53817132 -39.30124709 50.58728311 -43 36.0625 C-44.00285663 30.95419905 -44.43663811 27.02823338 -43 22 C-39.54059649 17.95688663 -35.79790458 15.56185344 -31.0546875 13.30078125 C-30.07715012 12.81909737 -30.07715012 12.81909737 -29.0798645 12.3276825 C-27.01613323 11.31297726 -24.94599548 10.3122826 -22.875 9.3125 C-20.79834419 8.29920945 -18.72311987 7.28306682 -16.64871216 6.2651825 C-15.36262028 5.63527235 -14.07497979 5.00851154 -12.78561401 4.3853302 C-3.38789447 -0.18312943 -3.38789447 -0.18312943 0 0 Z " fill="#17519E" transform="translate(316,502)"/>
<path d="M0 0 C0.99 0.33 1.98 0.66 3 1 C2.57074219 2.02673828 2.57074219 2.02673828 2.1328125 3.07421875 C0.89019008 6.28361251 -0.12700034 9.51910114 -1.125 12.8125 C-1.65480469 14.55466797 -1.65480469 14.55466797 -2.1953125 16.33203125 C-2.46085937 17.21246094 -2.72640625 18.09289062 -3 19 C-5.30903272 15.01647791 -4.86516528 12.49885947 -4 8 C-13.35731511 15.93837798 -20.69055807 23.94662004 -26.3125 34.875 C-26.63814941 35.49834229 -26.96379883 36.12168457 -27.29931641 36.76391602 C-32.16576096 46.69293068 -33.46574536 56.67592296 -33.25 67.625 C-33.24484375 68.67945313 -33.2396875 69.73390625 -33.234375 70.8203125 C-33.17058374 77.26322986 -32.7664245 83.60302902 -32 90 C-36.78166024 85.71837215 -36.42312608 79.3468071 -36.88183594 73.265625 C-37.96238066 52.54774263 -31.61557453 33.23857652 -18.2109375 17.34375 C-14.86217874 13.79382905 -11.28352981 10.53767805 -7.61328125 7.32421875 C-4.97163289 4.97477066 -2.47688364 2.52151217 0 0 Z " fill="#17509B" transform="translate(317,243)"/>
<path d="M0 0 C2.50072632 2.28072107 4.03784643 4.61770294 5.6875 7.5625 C8.50265698 12.38646247 11.76847458 16.6052565 15.36328125 20.87109375 C17 23 17 23 18 26 C19.32624859 26.68065181 20.66107677 27.34463231 22 28 C23.57045737 29.44856266 25.10825325 30.93279092 26.625 32.4375 C38.28624528 43.19814311 52.80752477 50.17583901 67 57 C69.94262124 58.42723986 72.87856301 59.86751106 75.8125 61.3125 C76.48877441 61.63822998 77.16504883 61.96395996 77.86181641 62.29956055 C81.02504426 63.85607592 83.72917957 65.25644371 86 68 C81.29275644 67.36828951 77.36290659 65.41523655 73.1640625 63.31640625 C72.02945084 62.75481056 72.02945084 62.75481056 70.87191772 62.18186951 C69.26837488 61.38549465 67.66640657 60.58594261 66.06591797 59.78344727 C63.6732934 58.58665636 61.27275266 57.40704785 58.87109375 56.22851562 C44.06585668 48.88448923 30.83306445 40.61827285 19 29 C17.73349609 27.76056641 17.73349609 27.76056641 16.44140625 26.49609375 C0 9.6864 0 9.6864 0 0 Z " fill="#16509D" transform="translate(289,346)"/>
<path d="M0 0 C-1.34440477 2.79804731 -2.83768589 5.38913897 -4.5390625 7.984375 C-10.0571504 16.50292882 -15.29060368 24.93398163 -19.50048828 34.18652344 C-20.26454233 35.82505625 -21.12468479 37.41810504 -22 39 C-23.485 39.495 -23.485 39.495 -25 40 C-23.58105351 33.82633806 -20.91227818 28.92173862 -17.6875 23.5 C-17.21376953 22.68402344 -16.74003906 21.86804688 -16.25195312 21.02734375 C-13.3961993 16.15967033 -10.35073034 11.54088047 -7 7 C-10.83770623 7 -12.58720122 8.29863813 -15.875 10.25 C-16.90367187 10.85328125 -17.93234375 11.4565625 -18.9921875 12.078125 C-22.03626011 13.94401795 -22.03626011 13.94401795 -24.7578125 16.234375 C-27 18 -27 18 -29 18 C-29 18.66 -29 19.32 -29 20 C-30.4609375 21.5078125 -30.4609375 21.5078125 -32.375 23.125 C-33.00148438 23.66382813 -33.62796875 24.20265625 -34.2734375 24.7578125 C-36 26 -36 26 -38 26 C-38 26.66 -38 27.32 -38 28 C-38.66 28 -39.32 28 -40 28 C-40.2475 28.598125 -40.495 29.19625 -40.75 29.8125 C-42.16370012 32.28647521 -43.65055383 33.43370255 -46 35 C-44.54677192 25.19071049 -31.60767322 17.70339093 -24.30078125 12.28125 C-6.95667006 0 -6.95667006 0 0 0 Z " fill="#17509D" transform="translate(406,230)"/>
<path d="M0 0 C0.66 0 1.32 0 2 0 C4.0392737 3.6459742 6.02590382 7.31835227 8 11 C8.49741699 11.91555664 8.49741699 11.91555664 9.00488281 12.84960938 C14.13456713 22.35333046 17.78170741 31.39731337 20 42 C20.1959375 42.886875 20.391875 43.77375 20.59375 44.6875 C21.21419859 49.74654237 21.10325367 54.78392556 21.0625 59.875 C21.05798828 60.94492188 21.05347656 62.01484375 21.04882812 63.1171875 C21.03709749 65.74484986 21.02068228 68.37239538 21 71 C20.34 71 19.68 71 19 71 C18.9906543 70.39752441 18.98130859 69.79504883 18.97167969 69.17431641 C18.56846768 48.34564907 15.85184314 30.57349648 6 12 C5.34 11.67 4.68 11.34 4 11 C3.67 10.01 3.34 9.02 3 8 C2.34 11.96 1.68 15.92 1 20 C0.67 20 0.34 20 0 20 C-0.1958009 18.08416353 -0.38132214 16.16727461 -0.5625 14.25 C-0.66691406 13.18265625 -0.77132812 12.1153125 -0.87890625 11.015625 C-0.98560074 8.35858796 -0.81930395 6.50039428 0 4 C-0.66 3.67 -1.32 3.34 -2 3 C-1.34 3 -0.68 3 0 3 C0 2.01 0 1.02 0 0 Z " fill="#18529F" transform="translate(762,173)"/>
<path d="M0 0 C1.9375 0.625 1.9375 0.625 4 2 C4.34951621 3.99723547 4.67826628 5.99810127 5 8 C5.69901987 9.45442651 6.44332317 10.88738681 7.21484375 12.3046875 C10.55267212 18.8340578 12.84669409 25.66991571 15.125 32.625 C15.34444275 33.29284515 15.5638855 33.96069031 15.78997803 34.64877319 C21.85219023 53.19705536 23.45540011 69.47618004 23 89 C22.67 89 22.34 89 22 89 C21.96036133 88.34217529 21.92072266 87.68435059 21.87988281 87.0065918 C20.22320765 60.69428832 15.41059059 36.16643038 3.95092773 12.19726562 C3 10 3 10 3 8 C2.34 7.67 1.68 7.34 1 7 C0.59270772 4.67843403 0.25561323 2.3431213 0 0 Z " fill="#184F9A" transform="translate(615,212)"/>
<path d="M0 0 C5.06507423 3.13925003 9.25344614 6.8359031 13.5625 10.9375 C14.20896484 11.54529297 14.85542969 12.15308594 15.52148438 12.77929688 C19.0738656 16.1293044 22.55605573 19.53821146 26 23 C26.91652344 23.86431641 26.91652344 23.86431641 27.8515625 24.74609375 C38.65311558 35.04801552 46.94361895 47.52222111 55 60 C54.505 60.99 54.505 60.99 54 62 C50.99634114 59.19223193 48.86339344 56.39390267 46.75 52.875 C39.74296143 41.64882969 30.98300809 30.88151821 20.6953125 22.5078125 C18.04909516 20.15426436 15.83553525 17.45592568 13.578125 14.734375 C11.9207532 12.77231826 11.9207532 12.77231826 9 11 C9 10.34 9 9.68 9 9 C8.443125 8.7525 7.88625 8.505 7.3125 8.25 C4.55839521 6.76129471 2.30825486 5.11590028 0 3 C0 2.01 0 1.02 0 0 Z " fill="#17519E" transform="translate(417,737)"/>
<path d="M0 0 C4.00627602 1.54872244 6.3330334 4.33528688 9 7.5625 C9.47711426 8.13693848 9.95422852 8.71137695 10.44580078 9.30322266 C22.06088405 23.50531893 31.32906334 38.8572325 40 55 C40.42796875 55.77714355 40.8559375 56.55428711 41.296875 57.35498047 C42.27778258 59.19628173 43.15031643 61.0945846 44 63 C43.67 63.99 43.34 64.98 43 66 C40.37934899 63.37934899 39.13664473 60.30326524 37.5625 57 C28.60516412 38.69696821 17.33413579 21.63383127 3.75805664 6.44042969 C0 2.20095122 0 2.20095122 0 0 Z " fill="#1651A0" transform="translate(603,505)"/>
<path d="M0 0 C4.28864667 0.4765163 6.10536297 2.99025958 9 6 C9.77859375 6.79277344 10.5571875 7.58554687 11.359375 8.40234375 C19.89886974 17.45811514 36 35.9282726 36 49 C36.99 49 37.98 49 39 49 C39 52.96 39 56.92 39 61 C37.03202426 58.04803639 36.01302914 55.51046634 34.8125 52.1875 C27.17586182 32.12740962 15.29084176 14.96082359 0 0 Z " fill="#1754A5" transform="translate(444,631)"/>
<path d="M0 0 C0.66 0 1.32 0 2 0 C-2.06824834 9.52717341 -14.03402802 14.12308293 -23 18 C-31.63151828 21.11903117 -39.72056633 23.13840457 -48.9296875 23.09765625 C-50.21875 23.09443359 -51.5078125 23.09121094 -52.8359375 23.08789062 C-54.18229236 23.07953733 -55.52864652 23.07107241 -56.875 23.0625 C-58.24479004 23.0574783 -59.61458185 23.05291657 -60.984375 23.04882812 C-64.3229619 23.03707254 -67.66145815 23.02063964 -71 23 C-71 22.67 -71 22.34 -71 22 C-69.89096313 21.93268677 -69.89096313 21.93268677 -68.75952148 21.86401367 C-31.09658834 19.73925585 -31.09658834 19.73925585 0 0 Z " fill="#17519F" transform="translate(647,462)"/>
<path d="M0 0 C0.765625 1.5703125 0.765625 1.5703125 1 4 C-0.31917731 6.46286773 -1.64906964 8.60672404 -3.25 10.875 C-3.70310547 11.53266357 -4.15621094 12.19032715 -4.62304688 12.86791992 C-14.09224699 26.44985734 -24.58085021 40.06719795 -38 50 C-38.66 50 -39.32 50 -40 50 C-39.39831451 46.63056128 -38.34195851 44.50924126 -36 42 C-34.88238281 41.60748047 -34.88238281 41.60748047 -33.7421875 41.20703125 C-30.29263536 39.68863864 -27.97358424 37.46475626 -25.375 34.8125 C-24.59721191 34.0244397 -24.59721191 34.0244397 -23.80371094 33.22045898 C-14.30773147 23.33962425 -6.92517233 11.76684009 0 0 Z " fill="#174F9C" transform="translate(637,726)"/>
<path d="M0 0 C-2.52808794 7.71732109 -5.25027472 15.35945902 -8 23 C-8.66 23 -9.32 23 -10 23 C-9.39363767 17.23955788 -7.24341721 12.27985631 -5 7 C-11.02719444 7.30135972 -14.63951584 10.12713988 -19 14 C-20.38576923 15.62332967 -21.72641268 17.28724465 -23 19 C-27.56521739 23.7826087 -27.56521739 23.7826087 -30 25 C-28.41609392 16.35530777 -19.59349735 10.81517875 -12.94921875 5.98828125 C-4.06679764 0 -4.06679764 0 0 0 Z " fill="#1853A2" transform="translate(433,305)"/>
<path d="M0 0 C1.34592097 1.65651812 2.67518731 3.32655239 4 5 C4.43570313 5.51175781 4.87140625 6.02351563 5.3203125 6.55078125 C10.80405441 13.30806978 14.26064157 21.20000174 18 29 C18.33 29.66 18.66 30.32 19 31 C19.039992 32.99960012 19.04346799 35.00047242 19 37 C16.39711993 34.39711993 15.56194183 31.44510476 14.3125 28.0625 C11.61889685 21.02056682 8.41128389 13.41128389 3 8 C2.34 13.61 1.68 19.22 1 25 C0.67 25 0.34 25 0 25 C-0.19789024 21.77138267 -0.38146345 18.54210273 -0.5625 15.3125 C-0.61857422 14.40048828 -0.67464844 13.48847656 -0.73242188 12.54882812 C-0.78076172 11.66259766 -0.82910156 10.77636719 -0.87890625 9.86328125 C-0.9260376 9.05157471 -0.97316895 8.23986816 -1.02172852 7.40356445 C-0.99838228 4.8210515 -0.5804792 2.51150091 0 0 Z " fill="#164F9B" transform="translate(521,269)"/>
<path d="M0 0 C18.63415534 3.30492566 35.56192262 13.12705982 52 22 C47.61937223 23.39089239 45.44163742 22.16190277 41.3125 20.1875 C40.15363281 19.64480469 38.99476563 19.10210938 37.80078125 18.54296875 C35 17 35 17 34 15 C32.02853002 14.3311084 30.05320885 13.67265365 28.06640625 13.05078125 C23.38760273 11.44747151 18.85268191 9.5126497 14.29296875 7.60083008 C9.56517066 5.62380062 4.80797355 3.7739205 0 2 C0 1.34 0 0.68 0 0 Z " fill="#17509D" transform="translate(318,683)"/>
<path d="M0 0 C4.18685111 1.52678405 7.9450545 3.58243828 11.75 5.875 C12.39251709 6.26139648 13.03503418 6.64779297 13.69702148 7.04589844 C23.93404457 13.30438344 33.87642076 20.20012259 43 28 C42.01 28.33 41.02 28.66 40 29 C37.609375 27.48046875 37.609375 27.48046875 34.75 25.1875 C30.13656288 21.58024174 25.44293805 18.17537999 20.5625 14.9375 C19.93883545 14.52266357 19.3151709 14.10782715 18.67260742 13.68041992 C15.53566764 11.6124773 12.37310638 9.60161789 9.15625 7.66015625 C8.55095459 7.2947876 7.94565918 6.92941895 7.32202148 6.55297852 C5.6587999 5.55763029 3.98782059 4.57527852 2.31640625 3.59375 C1.55199219 3.0678125 0.78757812 2.541875 0 2 C0 1.34 0 0.68 0 0 Z " fill="#1751A0" transform="translate(372,707)"/>
<path d="M0 0 C0.66 0.33 1.32 0.66 2 1 C-6.93026452 9.62519337 -17.49333959 15.90085973 -28.5 21.5 C-29.15806641 21.83829834 -29.81613281 22.17659668 -30.49414062 22.52514648 C-34.31949552 24.41291419 -37.75971672 25.52885741 -42 26 C-38.47607057 23.07991525 -34.53486427 21.2152734 -30.4375 19.25 C-19.5069703 13.88538346 -9.75937179 7.26761729 0 0 Z " fill="#17519E" transform="translate(728,335)"/>
<path d="M0 0 C0.57669434 0.2163208 1.15338867 0.4326416 1.74755859 0.65551758 C1.09795166 1.07849121 0.44834473 1.50146484 -0.22094727 1.93725586 C-3.21093744 3.88451055 -6.20044206 5.83250946 -9.18994141 7.78051758 C-10.21152344 8.44567383 -11.23310547 9.11083008 -12.28564453 9.79614258 C-14.31086673 11.1160957 -16.33481065 12.43801235 -18.35742188 13.76196289 C-20.22794877 14.9854244 -22.10175946 16.20388659 -23.97949219 17.41625977 C-24.79272949 17.94638672 -25.6059668 18.47651367 -26.44384766 19.02270508 C-27.15871338 19.48531738 -27.8735791 19.94792969 -28.61010742 20.42456055 C-30.39767299 21.57307224 -30.39767299 21.57307224 -31.25244141 23.65551758 C-32.90244141 23.32551758 -34.55244141 22.99551758 -36.25244141 22.65551758 C-33.90486565 20.10698017 -31.3934074 18.34983371 -28.46337891 16.51098633 C-27.52107422 15.91608398 -26.57876953 15.32118164 -25.60791016 14.70825195 C-24.13257813 13.78496094 -24.13257813 13.78496094 -22.62744141 12.84301758 C-20.69714877 11.62913557 -18.7674546 10.41430134 -16.83837891 9.19848633 C-15.89961914 8.61115723 -14.96085937 8.02382813 -13.99365234 7.41870117 C-10.64876259 5.26722328 -7.41796183 2.97045866 -4.21191406 0.61767578 C-2.25244141 -0.34448242 -2.25244141 -0.34448242 0 0 Z " fill="#1854A4" transform="translate(385.25244140625,443.344482421875)"/>
<path d="M0 0 C4.95696858 0.51161373 7.08417362 4.15672226 10.06274414 7.7878418 C16.94068734 16.42845495 25.83241651 28.6236411 25 40 C22.35996327 36.85313673 21.1274679 33.87369606 19.8125 30 C15.82572784 19.37257451 9.42818519 11.0616083 1.6875 2.86328125 C0 1 0 1 0 0 Z " fill="#16509F" transform="translate(644,233)"/>
<path d="M0 0 C0.60070312 0.20367187 1.20140625 0.40734375 1.8203125 0.6171875 C-0.79946981 2.45806749 -3.42633331 4.28857185 -6.0546875 6.1171875 C-6.80105469 6.64183594 -7.54742188 7.16648437 -8.31640625 7.70703125 C-9.03183594 8.20332031 -9.74726562 8.69960938 -10.484375 9.2109375 C-11.14421387 9.67177734 -11.80405273 10.13261719 -12.48388672 10.60742188 C-14.1796875 11.6171875 -14.1796875 11.6171875 -16.1796875 11.6171875 C-16.1796875 12.2771875 -16.1796875 12.9371875 -16.1796875 13.6171875 C-13.5396875 13.6171875 -10.8996875 13.6171875 -8.1796875 13.6171875 C-7.8496875 14.9371875 -7.5196875 16.2571875 -7.1796875 17.6171875 C-9.66057105 17.33655807 -12.13877935 17.04328151 -14.6171875 16.7421875 C-15.67776367 16.62423828 -15.67776367 16.62423828 -16.75976562 16.50390625 C-18.57642182 16.27791074 -20.38031272 15.95418023 -22.1796875 15.6171875 C-22.5096875 14.9571875 -22.8396875 14.2971875 -23.1796875 13.6171875 C-22.25027344 13.02550781 -21.32085938 12.43382812 -20.36328125 11.82421875 C-19.11447509 11.02621103 -17.86578453 10.22802239 -16.6171875 9.4296875 C-15.97475098 9.02057129 -15.33231445 8.61145508 -14.67041016 8.18994141 C-11.361823 6.07012853 -8.16177227 3.90273898 -5.0546875 1.4921875 C-2.1796875 -0.3828125 -2.1796875 -0.3828125 0 0 Z " fill="#1858AA" transform="translate(618.1796875,425.3828125)"/>
<path d="M0 0 C0.99 0.33 1.98 0.66 3 1 C-5.40113784 7.22656679 -13.97876676 12.96437481 -22.95654297 18.33129883 C-26.43436183 20.4125284 -29.82994271 22.45892233 -33 25 C-33.66 24.67 -34.32 24.34 -35 24 C-31.30185494 19.77929096 -26.7311604 17.15661426 -22 14.25 C-15.27810468 10.08275792 -8.6952691 5.81722985 -2.25 1.23046875 C-1.5075 0.82441406 -0.765 0.41835938 0 0 Z " fill="#1853A2" transform="translate(464,392)"/>
<path d="M0 0 C4.50105186 6.75157778 3.15491643 16.32288604 3.13037109 24.14624023 C3.12498481 26.19327099 3.13035621 28.24008505 3.13671875 30.28710938 C3.13542969 31.58841797 3.13414062 32.88972656 3.1328125 34.23046875 C3.13112061 36.00006958 3.13112061 36.00006958 3.12939453 37.80541992 C3.01366903 40.66252976 2.65721738 43.22395819 2 46 C1.67 46 1.34 46 1 46 C0.67 30.82 0.34 15.64 0 0 Z " fill="#1A509A" transform="translate(693,227)"/>
<path d="M0 0 C4.8907446 7.3361169 3.09350056 20.49265426 3.125 29.125 C3.13200928 30.47537354 3.13200928 30.47537354 3.13916016 31.85302734 C3.1289365 36.02821258 3.0637811 39.93061516 2 44 C1.67 44 1.34 44 1 44 C0.15159138 29.31950088 -0.13123182 14.70402097 0 0 Z " fill="#164D9A" transform="translate(626,636)"/>
<path d="M0 0 C0.33 0 0.66 0 1 0 C1.37172919 7.17947563 0.20502695 12.69180094 -2.1875 19.4375 C-2.50557617 20.35821289 -2.82365234 21.27892578 -3.15136719 22.22753906 C-7.95907444 35.87600506 -7.95907444 35.87600506 -11 40 C-12.485 40.495 -12.485 40.495 -14 41 C-12.93140198 37.52705645 -11.67939826 34.23951728 -10.15234375 30.94921875 C-7.8561434 25.8237529 -6.0587019 20.58371472 -4.3125 15.25 C-4.00505859 14.33089844 -3.69761719 13.41179687 -3.38085938 12.46484375 C-2.01056988 8.32099238 -0.79434194 4.29811894 0 0 Z " fill="#154D98" transform="translate(779,251)"/>
<path d="M0 0 C-2.35953094 2.35953094 -3.77895617 2.49141413 -7 3 C-6.11492804 4.42341471 -5.21635512 5.83843784 -4.3125 7.25 C-3.81363281 8.03890625 -3.31476563 8.8278125 -2.80078125 9.640625 C0.98188197 14.59665231 4.87782714 16.57150666 10.8125 18.25 C12.55466797 18.75273438 12.55466797 18.75273438 14.33203125 19.265625 C15.21246094 19.50796875 16.09289062 19.7503125 17 20 C17 20.33 17 20.66 17 21 C9.48130488 21.59672183 5.25968955 20.14352972 -1 16 C-1 15.34 -1 14.68 -1 14 C-1.99 13.67 -2.98 13.34 -4 13 C-5.60546875 11.0390625 -5.60546875 11.0390625 -7.1875 8.625 C-7.71730469 7.83351563 -8.24710937 7.04203125 -8.79296875 6.2265625 C-10 4 -10 4 -10 1 C-6.78548731 -0.60725635 -3.56387464 -0.05748185 0 0 Z " fill="#144B97" transform="translate(313,576)"/>
<path d="M0 0 C-1.41415862 4.24247587 -4.51220689 5.39685343 -8.1875 7.5625 C-14.55648367 11.3961106 -20.61986319 15.46248695 -26.48120117 20.03930664 C-28.109375 21.26171875 -28.109375 21.26171875 -31 23 C-33.18066406 22.60864258 -33.18066406 22.60864258 -35 22 C-2 0 -2 0 0 0 Z " fill="#1753A2" transform="translate(429,400)"/>
<path d="M0 0 C0.33 0 0.66 0 1 0 C1.01981934 0.57443848 1.03963867 1.14887695 1.06005859 1.74072266 C1.15592024 4.36923833 1.26534874 6.99702491 1.375 9.625 C1.4059375 10.52863281 1.436875 11.43226563 1.46875 12.36328125 C1.68444225 17.28825422 2.19941585 21.36252427 4 26 C5.02071026 29.5804602 6.01189971 33.16822941 7 36.7578125 C7.85139625 39.89874786 7.85139625 39.89874786 9.1875 42.1796875 C10.22114257 44.49544441 9.83574868 45.65990368 9 48 C0.74712235 31.92157818 -0.49710048 17.80894321 0 0 Z " fill="#134996" transform="translate(310,272)"/>
<path d="M0 0 C0.33 0 0.66 0 1 0 C1.87428466 5.442422 2.25888888 10.80868551 2.5 16.3125 C2.81478864 22.90398342 3.24735499 29.44123636 4 36 C1.45542398 34.11253977 0.98634195 32.94299853 0.234375 29.8046875 C-1.01205102 19.6925538 -0.92868024 10.14018419 0 0 Z " fill="#1853A3" transform="translate(281,297)"/>
<path d="M0 0 C0.33 0 0.66 0 1 0 C2.25522792 12.35702148 -2.90762179 22.1862857 -10.03515625 31.953125 C-12.08305154 34.0865189 -13.10908995 34.66519527 -16 35 C-15.64808594 34.58492187 -15.29617188 34.16984375 -14.93359375 33.7421875 C-6.82795903 23.62601675 -2.21455087 12.69675831 0 0 Z " fill="#16509D" transform="translate(527,521)"/>
<path d="M0 0 C4.57891275 1.58467152 8.32522187 3.9999313 12.3125 6.6875 C12.97386963 7.13013184 13.63523926 7.57276367 14.31665039 8.02880859 C19.19979748 11.34500697 23.74608331 14.89558198 28 19 C27.67 19.99 27.34 20.98 27 22 C26.52433594 21.53851562 26.04867188 21.07703125 25.55859375 20.6015625 C18.62137861 14.13704894 10.93910866 9.12139144 3 4 C2.01 3.34 1.02 2.68 0 2 C0 1.34 0 0.68 0 0 Z " fill="#1753A4" transform="translate(415,608)"/>
<path d="M0 0 C4.77455019 3.70402324 6.14925336 8.89098841 8.125 14.375 C8.47175781 15.30828125 8.81851563 16.2415625 9.17578125 17.203125 C10.1344282 19.79624665 11.07221527 22.39570135 12 25 C12.40734375 26.13953125 12.8146875 27.2790625 13.234375 28.453125 C14.11941459 31.3972363 14.14558484 33.94271837 14 37 C12.15617179 34.23425768 11.24192009 32.10721181 10.1953125 28.9921875 C9.85886719 28.00476563 9.52242187 27.01734375 9.17578125 26 C8.82902344 24.96875 8.48226562 23.9375 8.125 22.875 C5.93049057 16.3498807 3.68038373 9.97331347 0.72998047 3.74658203 C0 2 0 2 0 0 Z " fill="#154E9A" transform="translate(647,573)"/>
<path d="M0 0 C0.99 0.66 1.98 1.32 3 2 C3.28051758 3.99609375 3.28051758 3.99609375 3.14453125 6.4375 C3.09876953 7.33339844 3.05300781 8.22929688 3.00585938 9.15234375 C2.94205078 10.09207031 2.87824219 11.03179688 2.8125 12 C2.76802734 12.90878906 2.72355469 13.81757812 2.67773438 14.75390625 C2.31937278 20.97435561 1.37914542 26.92681995 0 33 C-0.33 33 -0.66 33 -1 33 C-1.33 28.71 -1.66 24.42 -2 20 C-1.34 20 -0.68 20 0 20 C0 13.4 0 6.8 0 0 Z " fill="#1956A6" transform="translate(530,561)"/>
<path d="M0 0 C0.66 0 1.32 0 2 0 C-1.38138855 10.82044337 -12.08299533 20.24186499 -20 28 C-20.66 27.67 -21.32 27.34 -22 27 C-18.87494555 23.38859602 -15.74085157 19.79491993 -12.484375 16.30078125 C-6.76941102 10.17272936 -6.76941102 10.17272936 -2 3.3125 C-1.34 2.219375 -0.68 1.12625 0 0 Z " fill="#16509D" transform="translate(501,354)"/>
<path d="M0 0 C1.175625 0.02030273 1.175625 0.02030273 2.375 0.04101562 C4.29196782 0.07608211 6.20857751 0.12987928 8.125 0.1875 C8.125 0.5175 8.125 0.8475 8.125 1.1875 C7.0628125 1.19007813 6.000625 1.19265625 4.90625 1.1953125 C-5.5919937 1.2910392 -5.5919937 1.2910392 -14.45703125 6.421875 C-16.68242387 9.1928873 -17.79314156 11.80669236 -18.875 15.1875 C-21.845 14.8575 -24.815 14.5275 -27.875 14.1875 C-27.875 13.5275 -27.875 12.8675 -27.875 12.1875 C-25.235 12.1875 -22.595 12.1875 -19.875 12.1875 C-19.7925 11.630625 -19.71 11.07375 -19.625 10.5 C-18.28114696 6.35645313 -15.93263826 3.85749709 -12.28515625 1.546875 C-8.01059266 -0.15707475 -4.54242611 -0.15013103 0 0 Z " fill="#164F9D" transform="translate(371.875,586.8125)"/>
<path d="M0 0 C7.37806039 8.69196156 5.21507088 23.24645593 5 34 C4.34 34 3.68 34 3 34 C2.94465088 33.25427734 2.88930176 32.50855469 2.83227539 31.74023438 C2.577741 28.32666594 2.32014467 24.91333503 2.0625 21.5 C1.97548828 20.32695312 1.88847656 19.15390625 1.79882812 17.9453125 C1.34315598 11.93719092 0.82009876 5.96972795 0 0 Z " fill="#1852A0" transform="translate(540,307)"/>
<path d="M0 0 C0 0.33 0 0.66 0 1 C-12.11110821 4.49358891 -24.50931414 4.13319452 -37 4 C-33.87156919 1.91437946 -32.68645575 1.669849 -29.0625 1.3671875 C-28.08410156 1.28339844 -27.10570312 1.19960938 -26.09765625 1.11328125 C-25.07542969 1.03464844 -24.05320312 0.95601562 -23 0.875 C-22.00871094 0.78863281 -21.01742188 0.70226562 -19.99609375 0.61328125 C-13.3176987 0.0647299 -6.69915959 -0.10385016 0 0 Z " fill="#1853A2" transform="translate(455,574)"/>
<path d="M0 0 C0 0.66 0 1.32 0 2 C-1.21816406 2.39832031 -2.43632812 2.79664063 -3.69140625 3.20703125 C-5.31515786 3.74202456 -6.93885278 4.27718996 -8.5625 4.8125 C-9.36236328 5.07353516 -10.16222656 5.33457031 -10.98632812 5.60351562 C-14.72834176 6.84067115 -18.30013086 8.11329919 -21.84375 9.84375 C-25 11 -25 11 -27.21484375 10.19921875 C-27.78332031 9.70035156 -28.35179687 9.20148437 -28.9375 8.6875 C-29.52402344 8.19636719 -30.11054688 7.70523438 -30.71484375 7.19921875 C-31.13894531 6.80347656 -31.56304687 6.40773438 -32 6 C-29 5 -29 5 -26.4140625 6.1484375 C-21.38831146 7.40200012 -18.03392173 5.57457955 -13.375 3.625 C-11.69760596 2.94483717 -10.01798427 2.27013629 -8.3359375 1.6015625 C-7.59907715 1.29557129 -6.8622168 0.98958008 -6.10302734 0.67431641 C-4 0 -4 0 0 0 Z " fill="#1652A0" transform="translate(321,563)"/>
<path d="M0 0 C0 0.66 0 1.32 0 2 C-8.38594007 4.19355023 -16.4987782 4.23625088 -25.125 4.125 C-26.47655581 4.11494282 -27.82811893 4.10582184 -29.1796875 4.09765625 C-32.45331558 4.07427319 -35.72655994 4.04150061 -39 4 C-39 3.67 -39 3.34 -39 3 C-38.21874756 2.94465088 -37.43749512 2.88930176 -36.63256836 2.83227539 C-33.06735808 2.57824061 -29.50243237 2.32040429 -25.9375 2.0625 C-24.09381836 1.93198242 -24.09381836 1.93198242 -22.21289062 1.79882812 C-14.86920674 1.26438213 -7.34683998 -0.22263151 0 0 Z " fill="#144A96" transform="translate(615,481)"/>
<path d="M0 0 C-1.00417969 0.49628906 -2.00835938 0.99257813 -3.04296875 1.50390625 C-4.42469149 2.18967653 -5.80618534 2.87590812 -7.1875 3.5625 C-7.90695801 3.91948975 -8.62641602 4.27647949 -9.36767578 4.64428711 C-15.18382463 7.54851402 -20.8676815 10.64085663 -26.5234375 13.84765625 C-27.74933594 14.41806641 -27.74933594 14.41806641 -29 15 C-29.66 14.67 -30.32 14.34 -31 14 C-30.01 13.67 -29.02 13.34 -28 13 C-28 12.34 -28 11.68 -28 11 C-24.0931927 8.95966944 -20.17314841 6.94620585 -16.25 4.9375 C-15.13882813 4.35677734 -14.02765625 3.77605469 -12.8828125 3.17773438 C-11.81289063 2.63310547 -10.74296875 2.08847656 -9.640625 1.52734375 C-8.65610352 1.01937256 -7.67158203 0.51140137 -6.65722656 -0.01196289 C-3.84077882 -1.05920324 -2.74315263 -1.09555369 0 0 Z " fill="#1754A3" transform="translate(550,415)"/>
<path d="M0 0 C0.33 0.66 0.66 1.32 1 2 C-0.03422037 4.58857496 -1.12805138 7.01517148 -2.375 9.5 C-2.73207031 10.21671875 -3.08914063 10.9334375 -3.45703125 11.671875 C-6.77030982 18.04621024 -10.81186915 23.00402214 -16 28 C-16.33 27.34 -16.66 26.68 -17 26 C-16.43152344 25.28457031 -15.86304688 24.56914062 -15.27734375 23.83203125 C-10.23762425 17.32835317 -6.06505023 10.84221607 -2.3125 3.51953125 C-1 1 -1 1 0 0 Z " fill="#1853A1" transform="translate(753,230)"/>
<path d="M0 0 C3.37227042 2.69781634 4.56631831 6.33926422 6.0625 10.25 C6.31837891 10.89324219 6.57425781 11.53648437 6.83789062 12.19921875 C9.26868801 18.41056221 11.32974606 24.24020581 11 31 C7.66236866 27.33248649 6.74409662 23.29638213 5.5 18.625 C4.37495754 14.44419704 3.29835426 10.59248652 1.34375 6.7109375 C0 4 0 4 0 0 Z " fill="#164E9A" transform="translate(533,500)"/>
<path d="M0 0 C2.125 0.375 2.125 0.375 4 1 C1.14846163 2.92059894 -1.70669947 4.83574555 -4.5625 6.75 C-5.36236328 7.28882813 -6.16222656 7.82765625 -6.98632812 8.3828125 C-19.85956555 17 -19.85956555 17 -23 17 C-23 16.34 -23 15.68 -23 15 C-21.10400391 13.61132812 -21.10400391 13.61132812 -18.4765625 12.03125 C-17.538125 11.46019531 -16.5996875 10.88914062 -15.6328125 10.30078125 C-14.64023437 9.70652344 -13.64765625 9.11226563 -12.625 8.5 C-10.67823704 7.32531712 -8.73285614 6.14833984 -6.7890625 4.96875 C-5.91975098 4.44732422 -5.05043945 3.92589844 -4.15478516 3.38867188 C-1.90586457 2.04674614 -1.90586457 2.04674614 0 0 Z " fill="#1853A3" transform="translate(340,484)"/>
<path d="M0 0 C0.33 0 0.66 0 1 0 C1.36386669 7.43703075 0.36687654 13.94004812 -1.5 21.125 C-1.85771484 22.55972656 -1.85771484 22.55972656 -2.22265625 24.0234375 C-2.80474499 26.35179246 -3.39726878 28.67691998 -4 31 C-4.66 31 -5.32 31 -6 31 C-5.29030646 24.21304565 -3.92442573 17.65576279 -2.4375 11 C-2.20353516 9.93910156 -1.96957031 8.87820313 -1.72851562 7.78515625 C-1.15557205 5.18937106 -0.57932765 2.59436646 0 0 Z " fill="#174F9C" transform="translate(610,667)"/>
<path d="M0 0 C1.15522441 2.81016421 1.05130575 3.86938667 -0.07983398 6.74902344 C-0.62969971 7.77543945 -1.17956543 8.80185547 -1.74609375 9.859375 C-2.33583984 10.97441406 -2.92558594 12.08945312 -3.53320312 13.23828125 C-4.16162109 14.39714844 -4.79003906 15.55601562 -5.4375 16.75 C-6.06946803 17.93560763 -6.70034071 19.12179982 -7.33007812 20.30859375 C-8.87602424 23.21166812 -10.43296196 26.10827222 -12 29 C-12.66 29 -13.32 29 -14 29 C-13.35222089 25.92109286 -12.30351066 23.43362771 -10.8203125 20.6640625 C-10.38589844 19.84679687 -9.95148437 19.02953125 -9.50390625 18.1875 C-9.04886719 17.341875 -8.59382812 16.49625 -8.125 15.625 C-7.23123764 13.95080537 -6.33799645 12.27633239 -5.4453125 10.6015625 C-5.02411133 9.81297852 -4.60291016 9.02439453 -4.16894531 8.21191406 C-2.7335434 5.49580267 -1.35583371 2.75656258 0 0 Z " fill="#17509D" transform="translate(588,740)"/>
<path d="M0 0 C0 0.66 0 1.32 0 2 C-2.32945502 3.4990058 -4.65418317 4.88890017 -7.0625 6.25 C-11.42618553 8.76876748 -15.52970953 11.18716109 -19.25 14.625 C-20.61125 15.800625 -20.61125 15.800625 -22 17 C-22.99 16.67 -23.98 16.34 -25 16 C-19.42212438 10.60749185 -8.12444728 0 0 0 Z " fill="#1852A0" transform="translate(554,400)"/>
<path d="M0 0 C5.05391874 0.60165699 9.07878491 2.89049143 13.5 5.25 C14.24636719 5.63285156 14.99273437 6.01570312 15.76171875 6.41015625 C20.25521061 8.78812805 23.60906381 11.20538093 27 15 C23.9536998 14.36330659 21.55557015 13.34396124 18.84765625 11.8203125 C18.07099609 11.38589844 17.29433594 10.95148437 16.49414062 10.50390625 C15.69169922 10.04886719 14.88925781 9.59382812 14.0625 9.125 C13.26392578 8.67769531 12.46535156 8.23039063 11.64257812 7.76953125 C2.84536966 2.82793445 2.84536966 2.82793445 0 1 C0 0.67 0 0.34 0 0 Z " fill="#16519F" transform="translate(421,600)"/>
<path d="M0 0 C0.33 0 0.66 0 1 0 C1.14809693 10.38324014 0.70201821 20.64523146 0 31 C-0.33 31 -0.66 31 -1 31 C-1.89830835 26.37910182 -2.19197186 21.88295743 -2.1875 17.1875 C-2.18814453 16.48625 -2.18878906 15.785 -2.18945312 15.0625 C-2.13547051 9.75257387 -1.45403232 5.08911311 0 0 Z " fill="#144D9A" transform="translate(420,337)"/>
<path d="M0 0 C0.33 0 0.66 0 1 0 C2.2982126 5.76081841 3.25706972 11.08739655 3 17 C-1.17383395 13.07168569 -4.89394426 8.83520017 -8 4 C-8 3.34 -8 2.68 -8 2 C-7.34 2 -6.68 2 -6 2 C-4.2856382 3.95927063 -2.61594832 5.95880212 -1 8 C-0.67 5.36 -0.34 2.72 0 0 Z " fill="#1956A4" transform="translate(671,665)"/>
<path d="M0 0 C1 3 1 3 -0.15234375 5.63671875 C-4.07937707 12.34790698 -8.16285339 17.84511728 -14 23 C-14.66 22.67 -15.32 22.34 -16 22 C-15.33613281 21.23816406 -14.67226563 20.47632813 -13.98828125 19.69140625 C-9.32890645 14.2691238 -5.08987803 9.06363811 -1.83984375 2.64453125 C-1 1 -1 1 0 0 Z " fill="#16509F" transform="translate(690,284)"/>
<path d="M0 0 C1.80307617 0.00483398 1.80307617 0.00483398 3.64257812 0.00976562 C4.88845703 0.01814453 6.13433594 0.02652344 7.41796875 0.03515625 C8.68318359 0.03966797 9.94839844 0.04417969 11.25195312 0.04882812 C14.36983985 0.06059374 17.48763008 0.07703353 20.60546875 0.09765625 C20.60546875 0.42765625 20.60546875 0.75765625 20.60546875 1.09765625 C13.34546875 1.42765625 6.08546875 1.75765625 -1.39453125 2.09765625 C-1.39453125 2.75765625 -1.39453125 3.41765625 -1.39453125 4.09765625 C-5.68453125 3.76765625 -9.97453125 3.43765625 -14.39453125 3.09765625 C-9.7121171 -0.02395319 -5.53359302 -0.02622556 0 0 Z " fill="#124B99" transform="translate(456.39453125,451.90234375)"/>
<path d="M0 0 C0.66 0 1.32 0 2 0 C4.69430667 9.47818596 6.67886067 18.04337678 6 28 C5.67 28 5.34 28 5 28 C4.3514451 24.64635373 3.7066521 21.29199449 3.0625 17.9375 C2.88009766 16.99455078 2.69769531 16.05160156 2.50976562 15.08007812 C1.54850968 10.06406984 0.66720776 5.06375577 0 0 Z " fill="#154D99" transform="translate(727,212)"/>
<path d="M0 0 C4.4899975 0.55401442 7.34987631 2.28265908 11.0625 4.8125 C12.08472656 5.49957031 13.10695313 6.18664062 14.16015625 6.89453125 C16.6961361 8.77471438 18.84592127 10.7012829 21 13 C20.67 13.66 20.34 14.32 20 15 C19.2265625 14.40832031 18.453125 13.81664062 17.65625 13.20703125 C10.62507252 7.85804352 10.62507252 7.85804352 3.25 3 C1.64125 2.01 1.64125 2.01 0 1 C0 0.67 0 0.34 0 0 Z " fill="#164F9D" transform="translate(622,217)"/>
<path d="M0 0 C0.90105469 0.00902344 1.80210937 0.01804687 2.73046875 0.02734375 C3.41753906 0.03894531 4.10460937 0.05054688 4.8125 0.0625 C4.8125 0.3925 4.8125 0.7225 4.8125 1.0625 C3.56146484 1.30033203 3.56146484 1.30033203 2.28515625 1.54296875 C-4.21239185 2.89011217 -9.65942673 4.41324054 -15.28515625 7.9765625 C-17.24986185 9.09809875 -18.97895359 9.61980696 -21.1875 10.0625 C-15.56479355 3.73695524 -8.58601055 -0.11150663 0 0 Z " fill="#1C5BAE" transform="translate(442.1875,454.9375)"/>
<path d="M0 0 C0.66 0 1.32 0 2 0 C2.21914063 0.60585938 2.43828125 1.21171875 2.6640625 1.8359375 C4.86687478 7.65637645 7.52070098 12.75807026 10.92578125 17.96875 C11.28027344 18.6390625 11.63476562 19.309375 12 20 C11.67 20.66 11.34 21.32 11 22 C5.45114733 16.12474423 0 8.24525965 0 0 Z " fill="#1754A5" transform="translate(372,350)"/>
<path d="M0 0 C2.0625 0.4375 2.0625 0.4375 4 1 C3.29875 1.433125 2.5975 1.86625 1.875 2.3125 C-1.70669226 5.66060363 -3.42888822 9.26705569 -5.5703125 13.63671875 C-7 16 -7 16 -10 17 C-10 17.66 -10 18.32 -10 19 C-10.66 18.67 -11.32 18.34 -12 18 C-1.63106796 1.63106796 -1.63106796 1.63106796 0 0 Z " fill="#1752A1" transform="translate(461,459)"/>
<path d="M0 0 C0 0.66 0 1.32 0 2 C-2.68533564 2.67662 -5.372725 3.34146121 -8.0625 4 C-9.19075195 4.28617187 -9.19075195 4.28617187 -10.34179688 4.578125 C-15.02773336 5.7141096 -19.17932546 6.20486266 -24 6 C-21.09253319 3.09253319 -17.57969073 2.75293776 -13.6875 1.875 C-12.92759766 1.69324219 -12.16769531 1.51148438 -11.38476562 1.32421875 C-7.52195871 0.43151098 -3.99333276 -0.23912172 0 0 Z " fill="#1856A8" transform="translate(612,381)"/>
<path d="M0 0 C0.33 0 0.66 0 1 0 C0.48334032 5.85983633 -0.75281077 10.60893883 -3.0625 16 C-3.48499023 17.01900391 -3.48499023 17.01900391 -3.91601562 18.05859375 C-4.60191311 19.70939787 -5.29969829 21.35525469 -6 23 C-6.99 22.67 -7.98 22.34 -9 22 C-8.60167969 21.0821875 -8.20335937 20.164375 -7.79296875 19.21875 C-5.04593741 12.86440088 -2.34579563 6.51609897 0 0 Z " fill="#174F9D" transform="translate(598,715)"/>
<path d="M0 0 C0.62182617 1.78857422 0.62182617 1.78857422 1 4 C-0.47123154 6.55327959 -1.9356567 8.78115448 -3.6875 11.125 C-4.13544922 11.75792969 -4.58339844 12.39085937 -5.04492188 13.04296875 C-9.16150413 18.68754005 -9.16150413 18.68754005 -13 20 C-11.66222693 17.13424917 -10.13521297 14.73731682 -8.1875 12.25 C-5.18235643 8.32190079 -2.54640153 4.23649104 0 0 Z " fill="#17519E" transform="translate(664,440)"/>
<path d="M0 0 C7.26 0 14.52 0 22 0 C22 5.00147987 21.97103025 6.81156072 20 11 C19.01879536 7.94736336 19.01879536 6.05263664 20 3 C18.35 3 16.7 3 15 3 C15 2.67 15 2.34 15 2 C10.05 1.67 5.1 1.34 0 1 C0 0.67 0 0.34 0 0 Z " fill="#12458F" transform="translate(659,389)"/>
<path d="M0 0 C1 3 1 3 0.10375977 4.90112305 C-0.36231689 5.59761963 -0.82839355 6.29411621 -1.30859375 7.01171875 C-1.80810547 7.76904297 -2.30761719 8.52636719 -2.82226562 9.30664062 C-3.35529297 10.09232422 -3.88832031 10.87800781 -4.4375 11.6875 C-4.96666016 12.48478516 -5.49582031 13.28207031 -6.04101562 14.10351562 C-7.35161846 16.07532349 -8.67146671 18.04024738 -10 20 C-10.82650966 17.66849782 -11.2167007 16.49881414 -10.21142578 14.18481445 C-9.7936084 13.5837085 -9.37579102 12.98260254 -8.9453125 12.36328125 C-8.49542969 11.70392578 -8.04554688 11.04457031 -7.58203125 10.36523438 C-7.10121094 9.68783203 -6.62039063 9.01042969 -6.125 8.3125 C-5.65191406 7.62349609 -5.17882812 6.93449219 -4.69140625 6.22460938 C-1.27455357 1.27455357 -1.27455357 1.27455357 0 0 Z " fill="#16509D" transform="translate(322,515)"/>
<path d="M0 0 C-2.78318117 1.86715811 -5.57779333 3.71643354 -8.375 5.5625 C-9.1690625 6.09552734 -9.963125 6.62855469 -10.78125 7.17773438 C-11.54179687 7.67724609 -12.30234375 8.17675781 -13.0859375 8.69140625 C-13.7876709 9.15748291 -14.4894043 9.62355957 -15.21240234 10.10375977 C-15.80230957 10.39951904 -16.3922168 10.69527832 -17 11 C-17.66 10.67 -18.32 10.34 -19 10 C-16.08427072 6.89859928 -13.0633958 4.51251787 -9.5 2.1875 C-8.5615625 1.56230469 -7.623125 0.93710937 -6.65625 0.29296875 C-3.65875204 -1.16610746 -3.02979503 -0.95951576 0 0 Z " fill="#1753A3" transform="translate(419,424)"/>
<path d="M0 0 C3.59403854 1.79701927 4.30131905 6.26926279 5.6875 9.875 C6.02072266 10.70386719 6.35394531 11.53273437 6.69726562 12.38671875 C7.00728516 13.18464844 7.31730469 13.98257813 7.63671875 14.8046875 C7.92248779 15.53671387 8.20825684 16.26874023 8.50268555 17.02294922 C9 19 9 19 8 22 C8 21.34 8 20.68 8 20 C7.34 20 6.68 20 6 20 C4.99183944 17.41958904 3.9932889 14.83613056 3 12.25 C2.71382812 11.52039063 2.42765625 10.79078125 2.1328125 10.0390625 C1.86210938 9.33007812 1.59140625 8.62109375 1.3125 7.890625 C1.06113281 7.24125977 0.80976562 6.59189453 0.55078125 5.92285156 C0 4 0 4 0 0 Z " fill="#164D99" transform="translate(679,184)"/>
<path d="M0 0 C0.66 0 1.32 0 2 0 C2.31453125 0.85722656 2.6290625 1.71445312 2.953125 2.59765625 C5.24173346 8.71210115 7.52496335 14.46568237 11 20 C9.19921875 19.88671875 9.19921875 19.88671875 7 19 C5.33203125 16.26953125 5.33203125 16.26953125 3.8125 12.8125 C3.30332031 11.68457031 2.79414063 10.55664062 2.26953125 9.39453125 C1.08272465 6.22119299 0.42211516 3.35149263 0 0 Z " fill="#1653A2" transform="translate(422,380)"/>
<path d="M0 0 C0.99 0.99 1.98 1.98 3 3 C2.34 3 1.68 3 1 3 C0.93941406 4.02480469 0.87882813 5.04960938 0.81640625 6.10546875 C0.73194974 7.46615695 0.64730433 8.82683343 0.5625 10.1875 C0.50352539 11.19780273 0.50352539 11.19780273 0.44335938 12.22851562 C0.21072435 15.89699102 -0.17207011 19.41694206 -1 23 C-1.66 23 -2.32 23 -3 23 C-1.43333333 1.43333333 -1.43333333 1.43333333 0 0 Z " fill="#124C9A" transform="translate(656,660)"/>
<path d="M0 0 C0.33 0.66 0.66 1.32 1 2 C-1.99860191 8.3822383 -6.2739216 13.8238189 -11 19 C-11.66 18.67 -12.32 18.34 -13 18 C-12.22076172 16.93072266 -12.22076172 16.93072266 -11.42578125 15.83984375 C-7.59339143 10.57650616 -3.77314205 5.305981 0 0 Z " fill="#164F9C" transform="translate(633,315)"/>
<path d="M0 0 C6.08867157 3.69379408 10.61251614 7.3750207 15 13 C11.26161126 13 10.67777231 12.11005385 8 9.625 C5.705039 7.51259272 3.60804104 5.73869403 1 4 C0.3125 1.875 0.3125 1.875 0 0 Z " fill="#1753A4" transform="translate(451,617)"/>
<path d="M0 0 C0 0.66 0 1.32 0 2 C-2.22432218 3.32134971 -4.45383619 4.63211206 -6.6875 5.9375 C-7.31333984 6.31068359 -7.93917969 6.68386719 -8.58398438 7.06835938 C-12.04444449 9.07941211 -14.95510676 10.51275665 -19 11 C-15.58107938 8.19026887 -12.09435366 5.64759988 -8.375 3.25 C-6.96347656 2.32960938 -6.96347656 2.32960938 -5.5234375 1.390625 C-3 0 -3 0 0 0 Z " fill="#1955A3" transform="translate(602,424)"/>
<path d="M0 0 C0.66 0 1.32 0 2 0 C0.62666848 3.82472829 -1.14127706 6.88428843 -3.5 10.1875 C-4.1084375 11.04730469 -4.716875 11.90710938 -5.34375 12.79296875 C-7 15 -7 15 -9 17 C-8.51792948 12.0012995 -7.05928661 9.12432824 -4.0625 5.125 C-3.35222656 4.15820312 -2.64195312 3.19140625 -1.91015625 2.1953125 C-1.27980469 1.47085937 -0.64945312 0.74640625 0 0 Z " fill="#18509C" transform="translate(356,267)"/>
<path d="M0 0 C0.99 0.33 1.98 0.66 3 1 C-0.40554079 6.26630019 -3.87668862 11.2703193 -8 16 C-8.33 15.01 -8.66 14.02 -9 13 C-7.3828125 10.37109375 -7.3828125 10.37109375 -5.125 7.4375 C-2.31857636 3.87131663 -2.31857636 3.87131663 0 0 Z " fill="#16509F" transform="translate(403,625)"/>
<path d="M0 0 C4.63990961 4.8508146 5.114863 11.63563898 5.125 18.0625 C5.08375 19.361875 5.0425 20.66125 5 22 C2.97469721 18.47773428 2.20547112 14.95941784 1.375 11 C1.11460937 9.783125 0.85421875 8.56625 0.5859375 7.3125 C0 4 0 4 0 0 Z " fill="#144B94" transform="translate(663,618)"/>
<path d="M0 0 C4.72502701 0.63242669 8.90570197 1.91813563 13.375 3.5625 C14.01566406 3.79646484 14.65632813 4.03042969 15.31640625 4.27148438 C16.8793161 4.84299619 18.43990727 5.42084229 20 6 C20 6.33 20 6.66 20 7 C14.98306635 7.30873438 11.30680076 6.26671727 6.625 4.5 C5.98433594 4.26152344 5.34367187 4.02304687 4.68359375 3.77734375 C3.11912535 3.19358688 1.55907863 2.59800276 0 2 C0 1.34 0 0.68 0 0 Z " fill="#1854A3" transform="translate(400,592)"/>
<path d="M0 0 C2.64 0.66 5.28 1.32 8 2 C8 2.66 8 3.32 8 4 C8.62648438 4.18175781 9.25296875 4.36351562 9.8984375 4.55078125 C11.12433594 4.92783203 11.12433594 4.92783203 12.375 5.3125 C13.18710937 5.55613281 13.99921875 5.79976563 14.8359375 6.05078125 C17 7 17 7 19 10 C12.42184809 8.53818846 6.67674514 5.61425988 1 2 C0.67 1.34 0.34 0.68 0 0 Z " fill="#1351A2" transform="translate(570,485)"/>
<path d="M0 0 C2.46875 -0.328125 2.46875 -0.328125 5.5 -0.25 C7.10101563 -0.21132813 7.10101563 -0.21132813 8.734375 -0.171875 C13.17731151 0.06196376 17.58504372 0.45301427 22 1 C22 1.33 22 1.66 22 2 C14.08 2.33 6.16 2.66 -2 3 C-1.34 2.01 -0.68 1.02 0 0 Z " fill="#124D9B" transform="translate(414,481)"/>
<path d="M0 0 C0.33 0 0.66 0 1 0 C1.33693273 6.96327638 0.3030887 12.43345544 -2 19 C-2.66 19 -3.32 19 -4 19 C-4.33 19.66 -4.66 20.32 -5 21 C-3.47512736 13.96212627 -1.77149249 6.9796804 0 0 Z " fill="#144A94" transform="translate(779,251)"/>
<path d="M0 0 C-1.47065925 3.58522876 -3.40065542 5.44386096 -6.4375 7.8125 C-7.21996094 8.43769531 -8.00242187 9.06289063 -8.80859375 9.70703125 C-9.53175781 10.13371094 -10.25492188 10.56039063 -11 11 C-11.99 10.67 -12.98 10.34 -14 10 C-12.75160501 8.894019 -11.50120766 7.79029799 -10.25 6.6875 C-9.55390625 6.07261719 -8.8578125 5.45773437 -8.140625 4.82421875 C-2.47965739 0 -2.47965739 0 0 0 Z " fill="#1854A3" transform="translate(582,436)"/>
<path d="M0 0 C0.33 0 0.66 0 1 0 C1.38750411 5.94172964 0.53456392 11.55538121 -2 17 C-2.99 17.33 -3.98 17.66 -5 18 C-4.79503906 17.35933594 -4.59007812 16.71867187 -4.37890625 16.05859375 C-2.51670522 10.08109266 -2.51670522 10.08109266 -1.375 3.9375 C-1 1 -1 1 0 0 Z " fill="#14509F" transform="translate(541,350)"/>
<path d="M0 0 C0.66 0 1.32 0 2 0 C1.45018084 6.04801071 0.09570426 11.30601106 -2 17 C-2.33 17 -2.66 17 -3 17 C-2.48517081 11.147205 -1.54642808 5.6702363 0 0 Z " fill="#17519E" transform="translate(620,712)"/>
<path d="M0 0 C0.99 0.495 0.99 0.495 2 1 C3.61037909 6.18899929 4.22541675 10.58999807 4 16 C3.34 16 2.68 16 2 16 C0.61470179 10.54538831 -0.2396943 5.63281599 0 0 Z " fill="#19529F" transform="translate(621,614)"/>
<path d="M0 0 C0.33 0 0.66 0 1 0 C1.33 5.28 1.66 10.56 2 16 C0.35 16.33 -1.3 16.66 -3 17 C-3.66 15.02 -4.32 13.04 -5 11 C-3.02 11.99 -3.02 11.99 -1 13 C-0.67 8.71 -0.34 4.42 0 0 Z " fill="#2064BA" transform="translate(389,359)"/>
<path d="M0 0 C3.24838923 1.08279641 4.04282583 1.89036845 6.1875 4.4375 C6.71730469 5.05496094 7.24710937 5.67242188 7.79296875 6.30859375 C9 8 9 8 9 10 C10.32 10.33 11.64 10.66 13 11 C12.01 11.33 11.02 11.66 10 12 C5.43303964 9.08799755 1.30958564 5.40204077 0 0 Z " fill="#1451A3" transform="translate(296,526)"/>
<path d="M0 0 C-2.48262432 2.48262432 -4.61775287 3.07286975 -7.9375 4.1875 C-8.99839844 4.55230469 -10.05929687 4.91710937 -11.15234375 5.29296875 C-14 6 -14 6 -17 5 C-11.4191261 1.3888463 -6.68858592 -0.31850409 0 0 Z " fill="#17519E" transform="translate(586,401)"/>
<path d="M0 0 C4.12172083 3.76843047 7.63068221 7.88904305 10 13 C9.67 13.66 9.34 14.32 9 15 C6.55624008 12.71035107 4.68459771 10.27347809 2.8125 7.5 C2.28269531 6.7265625 1.75289063 5.953125 1.20703125 5.15625 C0 3 0 3 0 0 Z " fill="#174F9D" transform="translate(467,632)"/>
<path d="M0 0 C-2.35953094 2.35953094 -3.77895617 2.49141413 -7 3 C-6.67 4.98 -6.34 6.96 -6 9 C-10 4.375 -10 4.375 -10 1 C-6.78548731 -0.60725635 -3.56387464 -0.05748185 0 0 Z " fill="#1653A3" transform="translate(313,576)"/>
<path d="M0 0 C-5.5808739 3.6111537 -10.31141408 5.31850409 -17 5 C-14.39104541 2.39104541 -12.01733462 1.89026736 -8.5 0.8125 C-7.3346875 0.44769531 -6.169375 0.08289063 -4.96875 -0.29296875 C-2 -1 -2 -1 0 0 Z " fill="#164E9C" transform="translate(677,365)"/>
<path d="M0 0 C4.83628305 0.99043705 9.47618873 1.95698846 14 4 C14 4.66 14 5.32 14 6 C12.1858073 5.71905418 10.37364999 5.42493567 8.5625 5.125 C7.04849609 4.88136719 7.04849609 4.88136719 5.50390625 4.6328125 C4.67761719 4.42398438 3.85132813 4.21515625 3 4 C2.67 3.34 2.34 2.68 2 2 C1.01 2.495 1.01 2.495 0 3 C0 2.01 0 1.02 0 0 Z " fill="#1A59AB" transform="translate(492,584)"/>
<path d="M0 0 C1.35304209 4.05912626 0.15216503 5.77149591 -1.4375 9.6875 C-2.14712891 11.45673828 -2.14712891 11.45673828 -2.87109375 13.26171875 C-3.24363281 14.16535156 -3.61617187 15.06898438 -4 16 C-4.33 16 -4.66 16 -5 16 C-4.55643705 9.79011871 -3.08467498 5.39459439 0 0 Z " fill="#164E9A" transform="translate(615,734)"/>
<path d="M0 0 C-0.68707031 0.40992188 -1.37414062 0.81984375 -2.08203125 1.2421875 C-3.43361328 2.05042969 -3.43361328 2.05042969 -4.8125 2.875 C-6.15248047 3.67550781 -6.15248047 3.67550781 -7.51953125 4.4921875 C-9.37294724 5.61883092 -11.19529917 6.79686611 -13 8 C-13 6.68 -13 5.36 -13 4 C-11.59248779 3.13083113 -10.1735479 2.28014851 -8.75 1.4375 C-7.96109375 0.96183594 -7.1721875 0.48617187 -6.359375 -0.00390625 C-3.69155375 -1.13022151 -2.65498232 -1.0169313 0 0 Z " fill="#174E98" transform="translate(288,517)"/>
<path d="M0 0 C0.66 0.33 1.32 0.66 2 1 C-0.31 5.62 -2.62 10.24 -5 15 C-5.33 15 -5.66 15 -6 15 C-5.61471495 8.83543922 -3.52913975 5.01372252 0 0 Z " fill="#174F9C" transform="translate(400,332)"/>
<path d="M0 0 C0.66 0 1.32 0 2 0 C1.34580901 5.06998019 -0.8546409 9.41990777 -3 14 C-3.33 14 -3.66 14 -4 14 C-3.46148032 8.72250715 -2.22656164 4.74354436 0 0 Z " fill="#16509E" transform="translate(607,753)"/>
<path d="M0 0 C-1.57934639 0.98558449 -3.16365173 1.96322541 -4.75 2.9375 C-6.07257812 3.75541016 -6.07257812 3.75541016 -7.421875 4.58984375 C-9.68399917 5.82715712 -11.48566325 6.53590513 -14 7 C-14 6.34 -14 5.68 -14 5 C-12.23628182 3.96692229 -10.46374967 2.94887951 -8.6875 1.9375 C-7.70136719 1.36902344 -6.71523438 0.80054688 -5.69921875 0.21484375 C-3 -1 -3 -1 0 0 Z " fill="#16519F" transform="translate(616,338)"/>
<path d="M0 0 C1.28497537 3.85492611 0.4052209 5.40346836 -0.9375 9.1875 C-1.31777344 10.27417969 -1.69804687 11.36085938 -2.08984375 12.48046875 C-2.39019531 13.31191406 -2.69054687 14.14335937 -3 15 C-3.33 15 -3.66 15 -4 15 C-4.34650743 9.34037856 -3.48055609 5.96111218 -1 1 C-0.67 0.67 -0.34 0.34 0 0 Z " fill="#164F9D" transform="translate(341,295)"/>
<path d="M0 0 C1.6074328 0.93188881 3.21082799 1.87074435 4.8125 2.8125 C5.70582031 3.33457031 6.59914063 3.85664063 7.51953125 4.39453125 C9.66831987 5.78532199 11.29361617 7.1122066 13 9 C8.07750013 8.53851564 3.72262318 6.19609831 0 3 C0 2.01 0 1.02 0 0 Z " fill="#16519F" transform="translate(377,414)"/>
<path d="M0 0 C0.33 0 0.66 0 1 0 C0.5547115 5.27315333 -0.08373163 10.01770224 -2 15 C-2.33 15 -2.66 15 -3 15 C-3.36263859 9.1977825 -2.25684543 5.36000789 0 0 Z " fill="#144A94" transform="translate(759,208)"/>
<path d="M0 0 C1 3 1 3 -0.14453125 5.48046875 C-0.97017578 6.82044922 -0.97017578 6.82044922 -1.8125 8.1875 C-2.35519531 9.08855469 -2.89789062 9.98960937 -3.45703125 10.91796875 C-3.96621094 11.60503906 -4.47539063 12.29210937 -5 13 C-5.66 13 -6.32 13 -7 13 C-5.35821735 8.22390502 -2.73453298 4.20617096 0 0 Z " fill="#174E9B" transform="translate(572,770)"/>
<path d="M0 0 C2.31 0.33 4.62 0.66 7 1 C4.73437327 3.26562673 3.15839295 3.94462749 -0.04296875 4.09765625 C-0.75066406 4.08605469 -1.45835937 4.07445312 -2.1875 4.0625 C-4.0746875 4.0315625 -4.0746875 4.0315625 -6 4 C-5.67 3.34 -5.34 2.68 -5 2 C-3.35 2 -1.7 2 0 2 C0 1.34 0 0.68 0 0 Z " fill="#1653A4" transform="translate(587,449)"/>
<path d="M0 0 C3.10190545 4.65285818 4.33846504 9.41532676 4 15 C1.49464087 12.65122581 0.09435091 10.9088213 -0.265625 7.44140625 C-0.25149142 4.95036325 -0.17369194 2.48475972 0 0 Z " fill="#154B97" transform="translate(688,207)"/>
<path d="M0 0 C-1.5830577 4.2742558 -4.50568404 6.26531794 -8 9 C-8.66 8.67 -9.32 8.34 -10 8 C-8.71451591 6.66070495 -7.42141845 5.32871357 -6.125 4 C-5.04605469 2.88625 -5.04605469 2.88625 -3.9453125 1.75 C-2 0 -2 0 0 0 Z " fill="#17539F" transform="translate(420,466)"/>
<path d="M0 0 C0 0.99 0 1.98 0 3 C-1.24420647 3.5345256 -2.49570936 4.05208611 -3.75 4.5625 C-4.44609375 4.85253906 -5.1421875 5.14257812 -5.859375 5.44140625 C-8 6 -8 6 -12 5 C-8.04 3.35 -4.08 1.7 0 0 Z " fill="#17509E" transform="translate(572,391)"/>
<path d="M0 0 C-4.96993194 2.43425238 -8.34605369 3.34615998 -14 3 C-11.87033995 0.87033995 -10.95931796 0.52375338 -8.125 -0.1875 C-7.44695313 -0.36667969 -6.76890625 -0.54585938 -6.0703125 -0.73046875 C-3.77181444 -1.02970718 -2.19449036 -0.69377386 0 0 Z " fill="#144B98" transform="translate(659,371)"/>
<path d="M0 0 C0.33 0 0.66 0 1 0 C0.45144652 4.571279 -0.41744803 8.67435795 -2 13 C-2.66 13 -3.32 13 -4 13 C-3.50269348 8.02693484 -2.44697666 4.36200187 0 0 Z " fill="#174F9C" transform="translate(379,273)"/>
<path d="M0 0 C-4.50332676 3.00221784 -8.57767579 4.31896025 -14 4 C-9.33286748 0.166284 -5.97171665 -0.13572083 0 0 Z " fill="#164E99" transform="translate(326,676)"/>
<path d="M0 0 C0.33 0 0.66 0 1 0 C1.77040851 6.06696699 2.09706112 11.88514973 2 18 C1.67 18 1.34 18 1 18 C0.855625 16.948125 0.71125 15.89625 0.5625 14.8125 C0.08803102 11.18910797 0.08803102 11.18910797 -0.625 8.4375 C-1.08719836 5.43321064 -0.61905305 2.95769792 0 0 Z " fill="#2062B4" transform="translate(671,654)"/>
<path d="M0 0 C4.40114397 0.50298788 6.71195019 2.08772731 10 5 C9.67 5.99 9.34 6.98 9 8 C7.49712782 6.85793642 5.99776716 5.71125043 4.5 4.5625 C3.6646875 3.92441406 2.829375 3.28632813 1.96875 2.62890625 C1.3190625 2.09136719 0.669375 1.55382812 0 1 C0 0.67 0 0.34 0 0 Z " fill="#1551A0" transform="translate(591,496)"/>
<path d="M0 0 C0 0.66 0 1.32 0 2 C-1.64453125 3.32421875 -1.64453125 3.32421875 -3.8125 4.6875 C-4.52019531 5.14511719 -5.22789062 5.60273438 -5.95703125 6.07421875 C-8 7 -8 7 -11 6 C-3.6 0 -3.6 0 0 0 Z " fill="#1754A3" transform="translate(432,458)"/>
<path d="M0 0 C-1.5830577 4.2742558 -4.50568404 6.26531794 -8 9 C-8.66 8.67 -9.32 8.34 -10 8 C-8.71451591 6.66070495 -7.42141845 5.32871357 -6.125 4 C-5.04605469 2.88625 -5.04605469 2.88625 -3.9453125 1.75 C-2 0 -2 0 0 0 Z " fill="#1451A1" transform="translate(527,419)"/>
<path d="M0 0 C0.99 0.33 1.98 0.66 3 1 C1.90081184 1.98475214 0.7954398 2.96260473 -0.3125 3.9375 C-0.92738281 4.48277344 -1.54226563 5.02804687 -2.17578125 5.58984375 C-4 7 -4 7 -7 8 C-5.51218185 4.21282653 -3.38011591 2.22592999 0 0 Z " fill="#164F9E" transform="translate(475,383)"/>
<path d="M0 0 C2.64752004 2.57784846 4.94432065 4.91648098 7 8 C6.67 8.99 6.34 9.98 6 11 C4.99126984 9.73608512 3.99328178 8.46359117 3 7.1875 C2.443125 6.47980469 1.88625 5.77210938 1.3125 5.04296875 C0 3 0 3 0 0 Z " fill="#154F9C" transform="translate(321,321)"/>
<path d="M0 0 C6.91428571 0.94285714 6.91428571 0.94285714 10 3 C10.33 3.99 10.66 4.98 11 6 C6.95743617 4.77782954 3.50711041 3.37245704 0 1 C0 0.67 0 0.34 0 0 Z " fill="#1551A5" transform="translate(509,591)"/>
<path d="M0 0 C3.63 0 7.26 0 11 0 C11 0.33 11 0.66 11 1 C5.42932723 2.59162079 0.78898419 3.20674944 -5 3 C-5 2.67 -5 2.34 -5 2 C-3.35 1.67 -1.7 1.34 0 1 C0 0.67 0 0.34 0 0 Z " fill="#1A59AC" transform="translate(444,574)"/>
<path d="M0 0 C-2.51699845 2.51699845 -4.57554146 3.10964078 -8 4 C-10.375 3.625 -10.375 3.625 -12 3 C-7.89542386 0.01485372 -5.02254631 -0.2954439 0 0 Z " fill="#1753A1" transform="translate(607,446)"/>
<path d="M0 0 C3.48247874 1.16082625 3.88819244 1.90932476 5.75 4.9375 C6.19859375 5.64777344 6.6471875 6.35804688 7.109375 7.08984375 C7.40328125 7.72019531 7.6971875 8.35054688 8 9 C7.67 9.66 7.34 10.32 7 11 C3.85014682 7.43569245 1.4859916 4.59306496 0 0 Z " fill="#144E9B" transform="translate(376,361)"/>
<path d="M0 0 C0.33 0.99 0.66 1.98 1 3 C-0.21484375 4.82421875 -0.21484375 4.82421875 -1.9375 6.6875 C-2.50339844 7.31011719 -3.06929687 7.93273437 -3.65234375 8.57421875 C-4.09707031 9.04472656 -4.54179688 9.51523437 -5 10 C-5.99 9.67 -6.98 9.34 -8 9 C-5.36 6.03 -2.72 3.06 0 0 Z " fill="#164D99" transform="translate(748,315)"/>
<path d="M0 0 C-1.28913487 0.67154933 -2.58140204 1.33708859 -3.875 2 C-4.59429687 2.37125 -5.31359375 2.7425 -6.0546875 3.125 C-8 4 -8 4 -10 4 C-10 3.01 -10 2.02 -10 1 C-6.16112237 -0.48320272 -3.93795909 -1.22419163 0 0 Z " fill="#18519F" transform="translate(353,668)"/>
<path d="M0 0 C-1.24176695 0.70226141 -2.49385599 1.38629109 -3.75 2.0625 C-4.79414063 2.63677734 -4.79414063 2.63677734 -5.859375 3.22265625 C-8.36140628 4.1312406 -9.5332355 3.88336837 -12 3 C-10.75823305 2.29773859 -9.50614401 1.61370891 -8.25 0.9375 C-7.20585937 0.36322266 -7.20585937 0.36322266 -6.140625 -0.22265625 C-3.63859372 -1.1312406 -2.4667645 -0.88336837 0 0 Z " fill="#1352A3" transform="translate(408,486)"/>
<path d="M0 0 C0.66 0 1.32 0 2 0 C2.96070434 2.88211302 3.10581883 4.69850044 3.0625 7.6875 C3.05347656 8.49574219 3.04445313 9.30398438 3.03515625 10.13671875 C3.02355469 10.75160156 3.01195312 11.36648438 3 12 C0.7655402 7.96707255 0.45503257 4.55032566 0 0 Z " fill="#144D9C" transform="translate(669,274)"/>
<path d="M0 0 C0.99 0.33 1.98 0.66 3 1 C3 1.99 3 2.98 3 4 C2.34 4 1.68 4 1 4 C0.67 5.65 0.34 7.3 0 9 C-0.33 9 -0.66 9 -1 9 C-1.125 2.25 -1.125 2.25 0 0 Z " fill="#1853A2" transform="translate(411,605)"/>
<path d="M0 0 C0.99 0.33 1.98 0.66 3 1 C-0.465 3.97 -0.465 3.97 -4 7 C-4.66 6.67 -5.32 6.34 -6 6 C-4 4 -2 2 0 0 Z " fill="#154E9D" transform="translate(351,476)"/>
<path d="M0 0 C1.5625 1.1875 1.5625 1.1875 3 3 C2.6875 5.6875 2.6875 5.6875 2 8 C0.68 7.67 -0.64 7.34 -2 7 C-1.34 6.34 -0.68 5.68 0 5 C-0.33 4.34 -0.66 3.68 -1 3 C-0.67 2.01 -0.34 1.02 0 0 Z " fill="#1859AC" transform="translate(354,468)"/>
<path d="M0 0 C0 0.66 0 1.32 0 2 C-3.67410785 3.17571451 -7.16929183 3.07366746 -11 3 C-7.72430636 -0.27569364 -4.48909309 -0.12469703 0 0 Z " fill="#18509C" transform="translate(599,384)"/>
<path d="M0 0 C0 2 0 2 -1.42578125 3.54296875 C-2.04839844 4.08566406 -2.67101562 4.62835938 -3.3125 5.1875 C-3.92738281 5.73792969 -4.54226563 6.28835938 -5.17578125 6.85546875 C-5.77777344 7.23316406 -6.37976563 7.61085938 -7 8 C-7.99 7.67 -8.98 7.34 -10 7 C-8.71372289 5.82739389 -7.42080217 4.6620717 -6.125 3.5 C-5.04605469 2.52546875 -5.04605469 2.52546875 -3.9453125 1.53125 C-2 0 -2 0 0 0 Z " fill="#164E99" transform="translate(740,326)"/>
<path d="M0 0 C0.75 1.625 0.75 1.625 1 4 C-0.8125 7.25 -0.8125 7.25 -3 10 C-3.66 10 -4.32 10 -5 10 C-3.66511872 6.40608886 -2.03977277 3.24509304 0 0 Z " fill="#164C97" transform="translate(763,294)"/>
<path d="M0 0 C3.81684226 1.55500981 6.19195732 4.03595495 9 7 C4.75272765 6.52808085 2.76506398 4.07229331 0 1 C0 0.67 0 0.34 0 0 Z " fill="#154C9A" transform="translate(406,729)"/>
<path d="M0 0 C-2 2 -2 2 -4.3828125 2.1953125 C-5.28773438 2.17210937 -6.19265625 2.14890625 -7.125 2.125 C-8.49011719 2.09792969 -8.49011719 2.09792969 -9.8828125 2.0703125 C-10.58148438 2.04710937 -11.28015625 2.02390625 -12 2 C-7.77897456 -0.19565018 -4.67132787 -1.55710929 0 0 Z " fill="#154F9E" transform="translate(480,571)"/>
<path d="M0 0 C0.66 0 1.32 0 2 0 C0.55746343 3.36591866 -1.33264727 5.51047079 -4 8 C-4.66 7.67 -5.32 7.34 -6 7 C-5.04882866 5.8274869 -4.08882991 4.66212985 -3.125 3.5 C-2.59132813 2.8503125 -2.05765625 2.200625 -1.5078125 1.53125 C-0.76144531 0.77328125 -0.76144531 0.77328125 0 0 Z " fill="#144F9C" transform="translate(560,453)"/>
<path d="M0 0 C1.32 0.33 2.64 0.66 4 1 C1.69 2.65 -0.62 4.3 -3 6 C-3.66 5.67 -4.32 5.34 -5 5 C-2.75 2.4375 -2.75 2.4375 0 0 Z " fill="#14509D" transform="translate(616,425)"/>
<path d="M0 0 C0.66 0 1.32 0 2 0 C1.25 7.625 1.25 7.625 -1 11 C-1.14285714 3.57142857 -1.14285714 3.57142857 0 0 Z " fill="#17509D" transform="translate(515,318)"/>
<path d="M0 0 C0.33 0 0.66 0 1 0 C1.33 2.97 1.66 5.94 2 9 C1.01 9.66 0.02 10.32 -1 11 C-2 10 -2 10 -2.1875 7.1875 C-2.00782439 4.13301456 -1.57664404 2.56204656 0 0 Z " fill="#1E67C0" transform="translate(674,296)"/>
<path d="M0 0 C1.13643966 3.40931897 0.86747764 4.00335456 -0.4375 7.1875 C-0.72496094 7.90292969 -1.01242187 8.61835938 -1.30859375 9.35546875 C-1.53675781 9.89816406 -1.76492188 10.44085938 -2 11 C-3.125 9.3125 -3.125 9.3125 -4 7 C-3.125 4.25 -3.125 4.25 -2 2 C-1.34 2 -0.68 2 0 2 C0 1.34 0 0.68 0 0 Z " fill="#1956A6" transform="translate(775,270)"/>
<path d="M0 0 C2.38564077 0.57584432 4.66682784 1.22227595 7 2 C7 2.66 7 3.32 7 4 C7.99 4.33 8.98 4.66 10 5 C9.01 5.33 8.02 5.66 7 6 C5.17578125 5.0390625 5.17578125 5.0390625 3.3125 3.625 C2.68988281 3.16351562 2.06726563 2.70203125 1.42578125 2.2265625 C0.95527344 1.82179688 0.48476563 1.41703125 0 1 C0 0.67 0 0.34 0 0 Z " fill="#1B59A7" transform="translate(289,568)"/>
<path d="M0 0 C-2.39763185 2.39763185 -3.33273498 2.34280586 -6.625 2.625 C-7.44226563 2.69976563 -8.25953125 2.77453125 -9.1015625 2.8515625 C-9.72804688 2.90054688 -10.35453125 2.94953125 -11 3 C-7.65817252 -1.0165182 -4.96805907 -0.24433077 0 0 Z " fill="#134D9B" transform="translate(360,563)"/>
<path d="M0 0 C0.66 0.33 1.32 0.66 2 1 C1 3 1 3 -1.3125 4.1875 C-4.19075776 5.05767095 -5.21381365 4.83763812 -8 4 C-6.71349294 3.30289269 -5.42059335 2.61757124 -4.125 1.9375 C-3.40570312 1.55464844 -2.68640625 1.17179687 -1.9453125 0.77734375 C-1.30335938 0.52082031 -0.66140625 0.26429688 0 0 Z " fill="#1653A3" transform="translate(612,418)"/>
<path d="M0 0 C1.15941038 3.47823115 0.70820884 5.45895578 0 9 C-0.99 9 -1.98 9 -3 9 C-2.25 2.25 -2.25 2.25 0 0 Z " fill="#1A58A9" transform="translate(393,348)"/>
<path d="M0 0 C0.66 0 1.32 0 2 0 C7 5.47619048 7 5.47619048 7 8 C3.64379729 6.61122646 1.92701272 5.08322035 0 2 C0 1.34 0 0.68 0 0 Z " fill="#144D99" transform="translate(663,667)"/>
<path d="M0 0 C0.99 0.33 1.98 0.66 3 1 C0.69 2.65 -1.62 4.3 -4 6 C-4.66 5.67 -5.32 5.34 -6 5 C-2.25 1.125 -2.25 1.125 0 0 Z " fill="#154E9C" transform="translate(380,651)"/>
<path d="M0 0 C0 0.66 0 1.32 0 2 C-4.15267176 5.11450382 -4.15267176 5.11450382 -7.3125 4.6875 C-7.869375 4.460625 -8.42625 4.23375 -9 4 C-3.375 0 -3.375 0 0 0 Z " fill="#17509D" transform="translate(507,560)"/>
<path d="M0 0 C0.66 0.33 1.32 0.66 2 1 C0.35 2.98 -1.3 4.96 -3 7 C-4.32 6.67 -5.64 6.34 -7 6 C-4.69 4.02 -2.38 2.04 0 0 Z " fill="#1D5DAE" transform="translate(621,330)"/>
<path d="M0 0 C0.33 0.99 0.66 1.98 1 3 C-0.40445835 5.2636564 -2.1967913 7.0208685 -4 9 C-4.66 8.67 -5.32 8.34 -6 8 C-4.02 5.36 -2.04 2.72 0 0 Z " fill="#164A94" transform="translate(756,305)"/>
<path d="M0 0 C3.82946843 1.45255699 5.12050295 3.42895561 7 7 C4.13302508 5.71480435 2.02392288 4.42870746 0 2 C0 1.34 0 0.68 0 0 Z " fill="#134A99" transform="translate(459,624)"/>
<path d="M0 0 C1.9375 0.625 1.9375 0.625 4 2 C4.75 5.125 4.75 5.125 5 8 C1.39345961 5.59563974 1.14547068 4.05320393 0 0 Z " fill="#16509F" transform="translate(535,571)"/>
<path d="M0 0 C2.25 0.25 2.25 0.25 4 1 C1.6875 3.0625 1.6875 3.0625 -1 5 C-1.99 4.67 -2.98 4.34 -4 4 C-2.25 1.9375 -2.25 1.9375 0 0 Z " fill="#1A58A9" transform="translate(533,412)"/>
<path d="M0 0 C2 1.625 2 1.625 4 4 C4.25 7.25 4.25 7.25 4 10 C1.81024227 6.71536341 1.00193437 3.79303725 0 0 Z " fill="#154990" transform="translate(774,196)"/>
<path d="M0 0 C4 1 4 1 4 1 Z " fill="#226DC4" transform="translate(584,455)"/>
<path d="M0 0 C0.66 0.66 1.32 1.32 2 2 C1.01 1.67 0.02 1.34 -1 1 C-0.67 0.67 -0.34 0.34 0 0 Z " fill="#1C66BE" transform="translate(602,443)"/>
<path d="" fill="#194F98" transform="translate(0,0)"/>
<path d="M0 0 C0.66 0 1.32 0 2 0 C1.67 0.66 1.34 1.32 1 2 C0.67 1.34 0.34 0.68 0 0 Z " fill="#185AAE" transform="translate(473,808)"/>
<path d="" fill="#2067C0" transform="translate(0,0)"/>
<path d="M0 0 C3 1 3 1 3 1 Z " fill="#195EB0" transform="translate(328,672)"/>
<path d="M0 0 C3 1 3 1 3 1 Z " fill="#1F66BF" transform="translate(467,575)"/>
<path d="" fill="#2066BF" transform="translate(0,0)"/>
<path d="" fill="#1E66C1" transform="translate(0,0)"/>
<path d="M0 0 C3 1 3 1 3 1 Z " fill="#1E67BD" transform="translate(580,488)"/>
<path d="" fill="#1958AC" transform="translate(0,0)"/>
<path d="M0 0 C2 1 2 1 2 1 Z " fill="#1B5DB3" transform="translate(425,749)"/>
<path d="M0 0 C2 1 2 1 2 1 Z " fill="#1B5CB0" transform="translate(373,711)"/>
<path d="M0 0 C2 1 2 1 2 1 Z " fill="#1B5DB5" transform="translate(370,709)"/>
<path d="M0 0 C2 1 2 1 2 1 Z " fill="#1B5BB1" transform="translate(354,701)"/>
<path d="M0 0 C2 1 2 1 2 1 Z " fill="#1A5CAE" transform="translate(339,694)"/>
<path d="" fill="#1F66C1" transform="translate(0,0)"/>
<path d="" fill="#1F68C1" transform="translate(0,0)"/>
<path d="M0 0 C2 1 2 1 2 1 Z " fill="#1E67C3" transform="translate(426,605)"/>
<path d="M0 0 C2 1 2 1 2 1 Z " fill="#1E67C3" transform="translate(376,590)"/>
<path d="M0 0 C2 1 2 1 2 1 Z " fill="#1E65C0" transform="translate(368,590)"/>
<path d="" fill="#1E65C0" transform="translate(0,0)"/>
<path d="" fill="#1957A6" transform="translate(0,0)"/>
<path d="" fill="#1D66C1" transform="translate(0,0)"/>
<path d="" fill="#1953A0" transform="translate(0,0)"/>
<path d="M0 0 C2 1 2 1 2 1 Z " fill="#1D68C4" transform="translate(583,487)"/>
<path d="M0 0 C2 1 2 1 2 1 Z " fill="#1E65BD" transform="translate(600,486)"/>
<path d="M0 0 C2 1 2 1 2 1 Z " fill="#1D63BD" transform="translate(607,485)"/>
<path d="M0 0 C2 1 2 1 2 1 Z " fill="#1F66C0" transform="translate(582,449)"/>
<path d="M0 0 C2 1 2 1 2 1 Z " fill="#1F63BA" transform="translate(605,443)"/>
<path d="" fill="#2167C0" transform="translate(0,0)"/>
<path d="" fill="#1F64BD" transform="translate(0,0)"/>
<path d="M0 0 C2 1 2 1 2 1 Z " fill="#1D68C0" transform="translate(576,400)"/>
<path d="M0 0 C2 1 2 1 2 1 Z " fill="#1D66BE" transform="translate(609,392)"/>
<path d="M0 0 C2 1 2 1 2 1 Z " fill="#1F65BD" transform="translate(676,367)"/>
<path d="M0 0 C2 1 2 1 2 1 Z " fill="#1D66BB" transform="translate(576,352)"/>
<path d="" fill="#1B5AAC" transform="translate(0,0)"/>
<path d="" fill="#1B61B9" transform="translate(0,0)"/>
<path d="M0 0 C2 1 2 1 2 1 Z " fill="#1655A5" transform="translate(526,274)"/>
<path d="" fill="#1D61B6" transform="translate(0,0)"/>
<path d="" fill="#1A5198" transform="translate(0,0)"/>
<path d="" fill="#020507" transform="translate(0,0)"/>
<path d="" fill="#154E98" transform="translate(0,0)"/>
<path d="" fill="#1B509D" transform="translate(0,0)"/>
<path d="" fill="#1A55A3" transform="translate(0,0)"/>
<path d="" fill="#1B58A9" transform="translate(0,0)"/>
<path d="" fill="#1A5BAE" transform="translate(0,0)"/>
<path d="" fill="#1957AA" transform="translate(0,0)"/>
<path d="" fill="#195BAD" transform="translate(0,0)"/>
<path d="" fill="#195BAF" transform="translate(0,0)"/>
<path d="" fill="#1C5CAE" transform="translate(0,0)"/>
<path d="" fill="#1A5AAD" transform="translate(0,0)"/>
<path d="" fill="#1A5CB1" transform="translate(0,0)"/>
<path d="" fill="#1A5EB3" transform="translate(0,0)"/>
<path d="" fill="#185BB0" transform="translate(0,0)"/>
<path d="" fill="#1A5DB2" transform="translate(0,0)"/>
<path d="" fill="#1B54A1" transform="translate(0,0)"/>
<path d="" fill="#1A5AAF" transform="translate(0,0)"/>
<path d="" fill="#1954A2" transform="translate(0,0)"/>
<path d="" fill="#1A5EB3" transform="translate(0,0)"/>
<path d="" fill="#1856A5" transform="translate(0,0)"/>
<path d="" fill="#1C5FB5" transform="translate(0,0)"/>
<path d="" fill="#1E5DB3" transform="translate(0,0)"/>
<path d="" fill="#195AAF" transform="translate(0,0)"/>
<path d="" fill="#1B5BB0" transform="translate(0,0)"/>
<path d="" fill="#1B5EB0" transform="translate(0,0)"/>
<path d="" fill="#1D5DB2" transform="translate(0,0)"/>
<path d="" fill="#1B5CB4" transform="translate(0,0)"/>
<path d="" fill="#1A58AB" transform="translate(0,0)"/>
<path d="" fill="#1A5AB2" transform="translate(0,0)"/>
<path d="" fill="#1B5CB2" transform="translate(0,0)"/>
<path d="" fill="#1D63BB" transform="translate(0,0)"/>
<path d="" fill="#1C61BA" transform="translate(0,0)"/>
<path d="" fill="#1A5AAF" transform="translate(0,0)"/>
<path d="" fill="#185AB0" transform="translate(0,0)"/>
<path d="" fill="#1D5CB0" transform="translate(0,0)"/>
<path d="" fill="#1D62B9" transform="translate(0,0)"/>
<path d="" fill="#1A5FB6" transform="translate(0,0)"/>
<path d="" fill="#1D5DB3" transform="translate(0,0)"/>
<path d="" fill="#1B5AAF" transform="translate(0,0)"/>
<path d="" fill="#185CB2" transform="translate(0,0)"/>
<path d="" fill="#1E5CB2" transform="translate(0,0)"/>
<path d="" fill="#1D65BF" transform="translate(0,0)"/>
<path d="" fill="#1D63BA" transform="translate(0,0)"/>
<path d="" fill="#2068C0" transform="translate(0,0)"/>
<path d="" fill="#1A5BB0" transform="translate(0,0)"/>
<path d="" fill="#1B5FB4" transform="translate(0,0)"/>
<path d="" fill="#1C5FB6" transform="translate(0,0)"/>
<path d="" fill="#1E67C0" transform="translate(0,0)"/>
<path d="" fill="#1F69C4" transform="translate(0,0)"/>
<path d="" fill="#1B62B8" transform="translate(0,0)"/>
<path d="" fill="#1963C0" transform="translate(0,0)"/>
<path d="" fill="#1D63BA" transform="translate(0,0)"/>
<path d="" fill="#1E66C0" transform="translate(0,0)"/>
<path d="" fill="#1C62BC" transform="translate(0,0)"/>
<path d="" fill="#1E68C2" transform="translate(0,0)"/>
<path d="" fill="#175BAD" transform="translate(0,0)"/>
<path d="" fill="#2068BF" transform="translate(0,0)"/>
<path d="" fill="#2168C1" transform="translate(0,0)"/>
<path d="" fill="#1F65BC" transform="translate(0,0)"/>
<path d="" fill="#2066C2" transform="translate(0,0)"/>
<path d="" fill="#1F64C0" transform="translate(0,0)"/>
<path d="" fill="#2066C0" transform="translate(0,0)"/>
<path d="" fill="#1E65BE" transform="translate(0,0)"/>
<path d="" fill="#1F67C0" transform="translate(0,0)"/>
<path d="" fill="#1D66C3" transform="translate(0,0)"/>
<path d="" fill="#1E65C1" transform="translate(0,0)"/>
<path d="" fill="#1D64BE" transform="translate(0,0)"/>
<path d="" fill="#1B67BF" transform="translate(0,0)"/>
<path d="" fill="#1D65C3" transform="translate(0,0)"/>
<path d="" fill="#1E64BC" transform="translate(0,0)"/>
<path d="" fill="#1D61B9" transform="translate(0,0)"/>
<path d="" fill="#1D5DB1" transform="translate(0,0)"/>
<path d="" fill="#1D67C5" transform="translate(0,0)"/>
<path d="" fill="#1B66C0" transform="translate(0,0)"/>
<path d="" fill="#1A63BF" transform="translate(0,0)"/>
<path d="" fill="#1C68C1" transform="translate(0,0)"/>
<path d="" fill="#1D66C0" transform="translate(0,0)"/>
<path d="" fill="#1C65BE" transform="translate(0,0)"/>
<path d="" fill="#2267C0" transform="translate(0,0)"/>
<path d="" fill="#1E69C3" transform="translate(0,0)"/>
<path d="" fill="#1F65BF" transform="translate(0,0)"/>
<path d="" fill="#1E63BF" transform="translate(0,0)"/>
<path d="" fill="#1B5BAB" transform="translate(0,0)"/>
<path d="" fill="#1E65C0" transform="translate(0,0)"/>
<path d="" fill="#1E5CAD" transform="translate(0,0)"/>
<path d="" fill="#1E66BF" transform="translate(0,0)"/>
<path d="" fill="#2068C1" transform="translate(0,0)"/>
<path d="" fill="#2268BE" transform="translate(0,0)"/>
<path d="" fill="#2169BF" transform="translate(0,0)"/>
<path d="" fill="#1E66C1" transform="translate(0,0)"/>
<path d="" fill="#1C66BF" transform="translate(0,0)"/>
<path d="" fill="#1A59A9" transform="translate(0,0)"/>
<path d="" fill="#1F6AC4" transform="translate(0,0)"/>
<path d="" fill="#2168C6" transform="translate(0,0)"/>
<path d="" fill="#2065BD" transform="translate(0,0)"/>
<path d="" fill="#1F65BE" transform="translate(0,0)"/>
<path d="" fill="#1B57A6" transform="translate(0,0)"/>
<path d="" fill="#1855A3" transform="translate(0,0)"/>
<path d="" fill="#1A5EB3" transform="translate(0,0)"/>
<path d="" fill="#1D65BF" transform="translate(0,0)"/>
<path d="" fill="#1F65BF" transform="translate(0,0)"/>
<path d="" fill="#1F66C0" transform="translate(0,0)"/>
<path d="" fill="#1E65C1" transform="translate(0,0)"/>
<path d="" fill="#1E5CA9" transform="translate(0,0)"/>
<path d="" fill="#1A5BAA" transform="translate(0,0)"/>
<path d="" fill="#1D66C2" transform="translate(0,0)"/>
<path d="" fill="#1C62BD" transform="translate(0,0)"/>
<path d="" fill="#1C62B7" transform="translate(0,0)"/>
<path d="" fill="#1C68C1" transform="translate(0,0)"/>
<path d="" fill="#185EB3" transform="translate(0,0)"/>
<path d="" fill="#1C65BF" transform="translate(0,0)"/>
<path d="" fill="#1E62BE" transform="translate(0,0)"/>
<path d="" fill="#1B65C4" transform="translate(0,0)"/>
<path d="" fill="#1C66C6" transform="translate(0,0)"/>
<path d="" fill="#1C63BF" transform="translate(0,0)"/>
<path d="" fill="#2068C4" transform="translate(0,0)"/>
<path d="" fill="#1A5BAF" transform="translate(0,0)"/>
<path d="" fill="#1D66C1" transform="translate(0,0)"/>
<path d="" fill="#1B66BF" transform="translate(0,0)"/>
<path d="" fill="#2066BC" transform="translate(0,0)"/>
<path d="" fill="#1E66BE" transform="translate(0,0)"/>
<path d="" fill="#1E66BE" transform="translate(0,0)"/>
<path d="" fill="#1A5AAA" transform="translate(0,0)"/>
<path d="" fill="#2066C2" transform="translate(0,0)"/>
<path d="" fill="#1D62B8" transform="translate(0,0)"/>
<path d="" fill="#1E65BE" transform="translate(0,0)"/>
<path d="" fill="#1E67C2" transform="translate(0,0)"/>
<path d="" fill="#1E68BE" transform="translate(0,0)"/>
<path d="" fill="#1E66BF" transform="translate(0,0)"/>
<path d="" fill="#1D67C2" transform="translate(0,0)"/>
<path d="" fill="#1D63B9" transform="translate(0,0)"/>
<path d="" fill="#1D5FB7" transform="translate(0,0)"/>
<path d="" fill="#1B61B9" transform="translate(0,0)"/>
<path d="" fill="#1E61B8" transform="translate(0,0)"/>
<path d="" fill="#1E65C2" transform="translate(0,0)"/>
<path d="" fill="#1B5DB4" transform="translate(0,0)"/>
<path d="" fill="#195DB4" transform="translate(0,0)"/>
<path d="" fill="#1B62B9" transform="translate(0,0)"/>
<path d="" fill="#1D64BD" transform="translate(0,0)"/>
<path d="" fill="#2169C2" transform="translate(0,0)"/>
<path d="" fill="#1958AF" transform="translate(0,0)"/>
<path d="" fill="#2068C2" transform="translate(0,0)"/>
<path d="" fill="#1F69C4" transform="translate(0,0)"/>
<path d="" fill="#1F66BE" transform="translate(0,0)"/>
<path d="" fill="#1C5DB0" transform="translate(0,0)"/>
<path d="" fill="#1C65BC" transform="translate(0,0)"/>
<path d="" fill="#2067C2" transform="translate(0,0)"/>
<path d="" fill="#1B66BE" transform="translate(0,0)"/>
<path d="" fill="#1A5CB3" transform="translate(0,0)"/>
<path d="" fill="#1F66C1" transform="translate(0,0)"/>
<path d="" fill="#1F65BE" transform="translate(0,0)"/>
<path d="" fill="#1A5DB0" transform="translate(0,0)"/>
<path d="" fill="#1D67C2" transform="translate(0,0)"/>
<path d="" fill="#1F68C1" transform="translate(0,0)"/>
<path d="" fill="#216AC0" transform="translate(0,0)"/>
<path d="" fill="#1C62BB" transform="translate(0,0)"/>
<path d="" fill="#1D5CAE" transform="translate(0,0)"/>
<path d="" fill="#1F65BB" transform="translate(0,0)"/>
<path d="" fill="#1C5FB4" transform="translate(0,0)"/>
<path d="" fill="#1B64BB" transform="translate(0,0)"/>
<path d="" fill="#1D65BB" transform="translate(0,0)"/>
<path d="" fill="#1F65BE" transform="translate(0,0)"/>
<path d="" fill="#1E65BD" transform="translate(0,0)"/>
<path d="" fill="#1A5CAC" transform="translate(0,0)"/>
<path d="" fill="#1A5CAF" transform="translate(0,0)"/>
<path d="" fill="#1C5EB1" transform="translate(0,0)"/>
<path d="" fill="#1A60BB" transform="translate(0,0)"/>
<path d="" fill="#1B63BB" transform="translate(0,0)"/>
<path d="" fill="#1B5AAB" transform="translate(0,0)"/>
<path d="" fill="#1B5CAF" transform="translate(0,0)"/>
<path d="" fill="#1A62BB" transform="translate(0,0)"/>
<path d="" fill="#1E66C2" transform="translate(0,0)"/>
<path d="" fill="#1D62B9" transform="translate(0,0)"/>
<path d="" fill="#1F63BB" transform="translate(0,0)"/>
<path d="" fill="#1D65BC" transform="translate(0,0)"/>
<path d="" fill="#1D63BB" transform="translate(0,0)"/>
<path d="" fill="#1D64BE" transform="translate(0,0)"/>
<path d="" fill="#1A62B5" transform="translate(0,0)"/>
<path d="" fill="#1C5BB0" transform="translate(0,0)"/>
<path d="" fill="#1A5EB2" transform="translate(0,0)"/>
<path d="" fill="#1A5CAF" transform="translate(0,0)"/>
<path d="" fill="#1F65BE" transform="translate(0,0)"/>
<path d="" fill="#1F67C0" transform="translate(0,0)"/>
<path d="" fill="#1E64BD" transform="translate(0,0)"/>
<path d="" fill="#1E65BD" transform="translate(0,0)"/>
<path d="" fill="#1E64BC" transform="translate(0,0)"/>
<path d="" fill="#1E66C0" transform="translate(0,0)"/>
<path d="" fill="#1F63BA" transform="translate(0,0)"/>
<path d="" fill="#1759B1" transform="translate(0,0)"/>
<path d="" fill="#1B62BB" transform="translate(0,0)"/>
<path d="" fill="#1753A3" transform="translate(0,0)"/>
<path d="" fill="#1853A4" transform="translate(0,0)"/>
<path d="" fill="#1D58AA" transform="translate(0,0)"/>
<path d="" fill="#1D62BB" transform="translate(0,0)"/>
<path d="" fill="#1D64BE" transform="translate(0,0)"/>
<path d="" fill="#1C5FB7" transform="translate(0,0)"/>
<path d="" fill="#1D61B8" transform="translate(0,0)"/>
<path d="" fill="#185AB0" transform="translate(0,0)"/>
<path d="" fill="#1C62BB" transform="translate(0,0)"/>
<path d="" fill="#1A57A5" transform="translate(0,0)"/>
<path d="" fill="#2066BE" transform="translate(0,0)"/>
<path d="" fill="#1D64BE" transform="translate(0,0)"/>
<path d="" fill="#1D66BC" transform="translate(0,0)"/>
<path d="" fill="#1D62BE" transform="translate(0,0)"/>
<path d="" fill="#1C5BAB" transform="translate(0,0)"/>
<path d="" fill="#1959A9" transform="translate(0,0)"/>
<path d="" fill="#1E66BE" transform="translate(0,0)"/>
<path d="" fill="#1858A9" transform="translate(0,0)"/>
<path d="" fill="#1C62BB" transform="translate(0,0)"/>
<path d="" fill="#1859AA" transform="translate(0,0)"/>
<path d="" fill="#1A57A7" transform="translate(0,0)"/>
<path d="" fill="#1A58AB" transform="translate(0,0)"/>
<path d="" fill="#185198" transform="translate(0,0)"/>
<path d="" fill="#1D63B8" transform="translate(0,0)"/>
<path d="" fill="#1D63BB" transform="translate(0,0)"/>
<path d="" fill="#1B62B7" transform="translate(0,0)"/>
<path d="" fill="#1B58A6" transform="translate(0,0)"/>
<path d="" fill="#1E61B9" transform="translate(0,0)"/>
<path d="" fill="#1A5EB3" transform="translate(0,0)"/>
<path d="" fill="#1854A0" transform="translate(0,0)"/>
<path d="" fill="#1A5BAE" transform="translate(0,0)"/>
<path d="" fill="#1957A5" transform="translate(0,0)"/>
</svg>
